<svg width="24" height="24" viewBox="0 0 24 24" fill="none" xmlns="http://www.w3.org/2000/svg">
<path d="M18.3304 12.7607C18.305 9.7304 20.8154 8.25334 20.9323 8.18734C19.5094 6.11638 17.3039 5.83213 16.5263 5.81183C14.6715 5.61897 12.8776 6.9184 11.9324 6.9184C10.9719 6.9184 9.51849 5.83213 7.94824 5.86262C5.93073 5.89304 4.04539 7.06052 3.01379 8.86753C0.879414 12.5577 2.47004 17.9786 4.51801 20.9633C5.53942 22.4251 6.73369 24.0545 8.2989 23.9986C9.82849 23.9377 10.4028 23.024 12.2474 23.024C14.0769 23.024 14.6156 23.9986 16.2113 23.9631C17.8527 23.9377 18.8894 22.4961 19.8752 21.0242C21.0593 19.3492 21.532 17.6995 21.5523 17.6183C21.5116 17.5929 18.3609 16.3899 18.3304 12.7607ZM15.3169 3.84748C16.1401 2.81709 16.7042 1.42124 16.5467 0C15.3575 0.0507313 13.8634 0.822263 13.0097 1.82731C12.2525 2.71558 11.5715 4.16725 11.7495 5.53267C13.0809 5.6291 14.458 4.85757 15.3169 3.84748Z" fill="white"/>
</svg>
