<svg width="24" height="24" viewBox="0 0 24 24" fill="none" xmlns="http://www.w3.org/2000/svg">
<path d="M1.56315 24C1.1877 23.8125 1 23.3438 1 22.875C1 22.7812 1 22.5938 1 22.5C1 15.5625 1 8.62497 1 1.78121C1 1.4062 1.09385 1.12499 1.1877 0.749984C1.2816 0.562453 1.4693 0.374976 1.65705 0.1875C5.69302 4.21873 9.63514 8.24996 13.5773 12.2812C9.5413 16.0312 5.59917 19.9688 1.56315 24Z" fill="white"/>
<path d="M17.5214 8.15625C16.395 9.28128 15.1748 10.4062 14.0485 11.625C10.2941 7.78125 6.44583 3.93749 2.69141 0.0937383C2.69141 0.0937383 2.69141 0 2.78525 0C7.66602 2.71873 12.5467 5.43752 17.5214 8.15625Z" fill="white"/>
<path d="M2.69141 24C6.44583 20.25 10.2941 16.5 14.0485 12.75C15.081 13.7812 16.2073 14.8125 17.4275 15.9375C12.5467 18.6563 7.66602 21.375 2.78525 24H2.69141Z" fill="white"/>
<path d="M18.0823 15.5625C16.8621 14.4375 15.7358 13.3125 14.5156 12.1875C15.7358 10.9688 16.956 9.75001 18.1761 8.53125C18.5516 8.71873 18.927 8.90626 19.3025 9.18747C20.2411 9.75001 21.2736 10.2188 22.2122 10.7812C22.4938 10.875 22.6815 11.0625 22.8692 11.3437C23.2446 11.8125 23.2446 12.2813 22.8692 12.75C22.6815 12.9375 22.4938 13.125 22.2122 13.2188C20.8981 14.0625 19.4902 14.8125 18.0823 15.5625Z" fill="white"/>
</svg>
