<svg xmlns="http://www.w3.org/2000/svg" version="1.1" xmlns:xlink="http://www.w3.org/1999/xlink" xmlns:svgjs="http://svgjs.dev/svgjs" width="200" height="200"><svg xmlns="http://www.w3.org/2000/svg" version="1.1" xmlns:xlink="http://www.w3.org/1999/xlink" viewBox="0 0 200 200">
  <!-- Generator: Adobe Illustrator 29.0.0, SVG Export Plug-In . SVG Version: 2.1.0 Build 186)  -->
  <defs>
    <style>
      .st0 {
        fill: #fff;
      }

      .st1 {
        fill: #fbffe3;
      }

      .st2 {
        fill: #c7ebff;
      }

      .st3 {
        fill: none;
      }

      .st4 {
        fill: #40f;
      }

      .st5 {
        fill: #f15a24;
      }

      .st6 {
        fill: #22b573;
      }

      .st7 {
        clip-path: url(#clippath);
      }

      .st8 {
        fill: #fbb03b;
      }
    </style>
    <clipPath id="SvgjsClipPath1010">
      <rect class="st3" x="8.7" y="8.7" width="182.7" height="182.7"></rect>
    </clipPath>
  </defs>
  <g id="SvgjsG1009" data-name="레이어_2">
    <rect class="st5" width="200" height="200"></rect>
  </g>
  <g id="SvgjsG1008">
    <g class="st7">
      <g>
        <path class="st5" d="M118.4,137.7c0-.9,0-1.8,0-2.7-1-.2-2-.4-2.9-.7,0,1.2.2,2.3.3,3.5h2.5Z"></path>
        <path class="st5" d="M174.6,8.7H25.4c-9.2,0-16.7,7.5-16.7,16.7v149.3c0,9.2,7.5,16.7,16.7,16.7h75.3c.7-4.2,2.1-8.3,3.3-12.3,0-.2,0-.4.2-.6-1.2-.3-2.3-.9-2.9-2-1.1.2-2.2.2-3.3,0-1-.1-2.3-.3-3-1.1-.3-.3-.4-.7-.5-1.1-3.8.8-7.6,1.6-11.3,2.3-2.6.5-5.2,1.1-7.8,1.6-1,.2-2.1.5-3.2.6-1.6.2-3.3.2-5,.2-4,.2-7.9.4-11.9.6-9.2.5-18.3.9-27.5,1.5-.5,0-.8-.4-.8-.8-.4-3.6-.8-7.1-1.1-10.7-1.2-12.4-2.1-24.7-2.8-37.1,0-.4.2-.7.5-.8h0c.7-.2,1.3-.4,2-.6,1.5-.5,3-.9,4.4-1.4-3.4-.2-6.8-.4-10.2-.4h-.3c-.4,0-.6-.3-.7-.6-.3-.6-.3-1.6-.3-2.1-.2-2.1-.4-4.1-.6-6.2-.6-6.6-1-13.2-1.3-19.8-.3-6.5-.5-13.2,0-19.7,0,0,0-.3.1-.4,0-.2.2-.4.5-.4.6-.2,1.2-.4,1.8-.6,1.6-.5,3.3-1,4.9-1.6,0-1.9-.2-3.9-.3-5.8-.4-7-.8-14-1.2-20.9-.2-3.5-.4-6.9-.7-10.4,0-.4.2-.7.6-.8h0c.7-.3,1.4-.5,2-.8,6.8-2.8,13.6-5.8,20.3-8.8,5.7-2.6,11.4-5.2,17.1-7.7.7-.3,1.5-.6,2.2-.9.4-.2.8-.3,1.2-.2,1.3.2,2.6.6,3.9,1,6.4,1.7,12.8,3.5,19.2,5.3,7,2,14,4.1,20.8,6.4.4,0,.6.4.6.8,0,.9,0,1.8.2,2.7.4,5.5,1,11,1.6,16.5.4,3.7.8,7.3,1.2,11,4.7-1.5,9.6-2.3,14.4-2.6,6.5-.4,13,0,19.3,1.7,3.3.9,6.6,2.1,9.7,3.7,3.2,1.6,6.4,3.6,8.9,6.3.7.8,1.3,1.6,1.9,2.5h.3c5.2.4,10.1,3.2,12.5,8,1.4,2.7,1.8,5.7,1.7,8.7-.1,3.2-.8,6.4-2.1,9.4-.4.9-.8,1.7-1.3,2.6.6.5,1.3,1,1.9,1.5.3.2.3.8.1,1h0c1,.8,2.1,1.6,3.1,2.5.3.2.3.8.1,1-.6.8-1.2,1.6-1.8,2.4-.4.5-.9.6-1.3.2-1-.8-1.9-1.5-2.9-2.3-.3.2-.7.4-1,0-.6-.5-1.2-.9-1.8-1.4-1.3,1.5-2.6,3-3.8,4.6-1.3,1.7-2.4,3.6-2.8,5.8-.2,1-.3,2.3,0,3.3.4,1.5,2,2.2,3.4,2.5.3,0,.5.3.6.6.4,2,0,4.4-1.8,5.5-1.1.6-2.7.8-3.9.3-.5-.2-1-.6-1.6-.5-.4,0-.6.2-.8.5-.7.7-1.4,1.3-2.4,1.5-1.2.3-2.5.2-3.6-.5-.7-.4-1.2-1.2-1.8-1.6-.7-.5-2.1.5-2.9.7-1.8.4-3.5-.5-4.5-1.9-.8.4-1.7.8-2.5,1.1-2.1.9-4.4,1.6-6.7,2.2v1.6c2.3-1,4.9-1.4,7.3-.3,2.1,1,4,3.2,4.6,5.5.7,2.4.2,5.1-.8,7.4-.7,1.5-1.7,2.7-2.8,3.7,0,.5.2.9.2,1.4,1.1,6.4,2.3,12.8,3.6,19.2,1.3,6.1,2.6,12.3,4.2,18.3h18.7c9.2,0,16.7-7.5,16.7-16.7V25.4c0-9.2-7.5-16.7-16.7-16.7h.4Z"></path>
        <path class="st0" d="M137,137.4c.3-.2.6-.3.8-.5v-2.1c-5.3,1.1-10.8,1.3-16.1.6-.5,0-.9-.1-1.4-.2,0,.8,0,1.6,0,2.5h1.6c.2,0,.3,0,.5.2h0s0,.1.2.2h0c1.5,2.3,2.5,5,3.8,7.4,0-.1,0-.3.2-.4.7-1.4,1.4-2.9,2-4.3.4-.9.8-1.8,1.3-2.6.2-.3.6-.5.9-.5h.3c.1,0,0,0,0,0h.3c.9,0,1.8-.1,2.7-.2.9,0,1.8,0,2.8-.1h.2Z"></path>
        <path class="st4" d="M116.4,139.1c.2-.1,0-.2,0,0h0Z"></path>
        <path class="st4" d="M149.7,171.5c-1.2-5.9-2.3-11.8-3.3-17.8-.2.2-.4.3-.6.5-.7.5-1.4,1.1-2.1,1.6-.5.4-1.1.8-1.7.3-.3-.2-.6-.5-.8-.8-.8.5-1.6,1.1-2.4,1.6-2.1,1.4-4.2,2.7-6.4,4-4.5,2.7-9.1,5.2-13.6,8,1,3,.9,6.7-1.9,8.8-1.2.9-2.5,1-3.9.8-.9-.1-2-.4-2.7-1-.8.5-1.6.8-2.5,1-.6.1-1.2.2-1.8.2-.3,1-.6,1.9-.9,2.9-1,3.2-2,6.5-2.6,9.8h51.7c0-.1,0-.3-.1-.4-1.7-6.4-3-12.9-4.3-19.4h0Z"></path>
        <path class="st4" d="M125.6,148.6c-1.7.5-3.3.9-5,1.4-.5.1-1.2-.3-1.1-.8.4-3.2.5-6.5,1-9.7h-4.1c0,.2,0,.4,0,.6h0c.5,5.1.9,10.2,1.3,15.3,2.7-2.3,5.4-4.6,8.1-6.9h-.1Z"></path>
        <path class="st4" d="M132.2,140.6c.6-.4,1.3-.9,1.9-1.3h-2c0,.4,0,.8.1,1.1v.2Z"></path>
        <path class="st4" d="M121.4,148c1.3-.4,2.5-.7,3.8-1.1-1.1-2-2-4.1-3.1-6.1-.3,2.4-.4,4.8-.7,7.2h0Z"></path>
        <path class="st4" d="M129.2,145.6c.6-.5,1.1-.9,1.7-1.4,0-1.1-.2-2.2-.3-3.2-1,2-1.9,3.9-2.8,5.9.5-.4,1-.8,1.5-1.2h0Z"></path>
        <path class="st5" d="M169.8,90.9v3.7c0,1,0,2.1-.6,2.9-.1.2-.2.3-.4.4,2.7,2.1,5.3,4.3,8,6.4.4-.6.7-1.2,1-1.9,1.3-2.8,2-5.9,2.1-9,0-2.9-.3-5.7-1.7-8.2-2.1-3.7-5.9-6-10-6.6.5,1.1.9,2.3,1.2,3.5.6,2.9.6,5.9.6,8.8h-.2Z"></path>
        <path class="st5" d="M171,109.9c-.5,1.6-1.6,2.8-3.2,3.4-.9.3-1.9.4-2.9.3-.4,0-.9,0-1.3-.2-.3,1.4-.6,2.8-1.2,4.1-2.3,5.7-6.9,9.9-12.2,12.8.2.3.5.6.9.8.5.3,1.1.4,1.7.2.6-.2,1.1-.5,1.7-.7,1-.3,2-.2,2.7.5.5.4.9,1.1,1.5,1.4.8.5,2,.4,2.9,0,.6-.3,1-1,1.6-1.4,1-.6,2.1-.5,3.1,0,.5.2.7.4,1.3.4s.9,0,1.4-.2c.8-.4,1.2-1.1,1.3-2v-1.2c-.7-.2-1.4-.4-2.1-.9-1.2-.8-2.1-2-2.2-3.5-.1-1.2,0-2.4.2-3.6.5-2.2,1.5-4.1,2.8-5.9,1.3-1.7,2.6-3.3,4-5-.6-.5-1.2-.9-1.7-1.4,0,.6-.2,1.2-.4,1.8v.3Z"></path>
        <path class="st5" d="M102,99.6c.8-.3,1.4-.7,2.1-1.2,1.8-1.4,3.9-1,5.8-.3,1.1.4,2.2.9,3.4,1.1,1.2.2,2-.2,3-.9,1.1-.8,2.2-1.3,3.5-1.1,1.2.2,2.2.8,3.2,1.4,1,.5,2,1.1,3.1.9,1.3-.3,2.4-1.1,3.7-1.4s2.6,0,3.9.6c1.2.5,2.4,1.2,3.7,1,1.4,0,2.6-1,3.9-1.4.9-.3,1.9-.5,2.9-.4,1.5.2,2.5,1.1,3.9,1.7,0,0,.2,0,.3,0,.3,0,.6.2.9.2h.9c1-.2,2-.7,3-1s2.1-.3,3,.2c1,.5,1.8,1.4,2.4,2.4.6.9,1.2,1.9,1.8,2.8.3.4.6.8,1,1,.3-1,.9-2,1.5-2.8.2-.2.4-.4.6-.6-.4-.3-.8-.7-1.3-1-1.2-.9-2.4-1.9-3.5-2.8-2.6-.2-5.2-.5-7.8-.7h-1.1c-.2,0-.5.2-.7.2h-1.3c-2.9-.2-5.8-.3-8.7-.4-5.9-.2-11.8-.4-17.7-.4s-13.2,0-19.8.3c0,.9,0,1.9.2,2.8h.3v-.3Z"></path>
        <path class="st4" d="M112.1,80.5c.5.3,1.1.4,1.7.3s1.1-.5,1.5-1.1c.2-.4.8-.5,1.2-.2v-1.5c-.4.2-.7.2-1.1-.2-.4-.4-.7-.7-1.2-1h0c0,.5,0,1,0,1.5s0,.7-.4.9c-.3.2-.8.2-1.1.3-.5,0-1,.2-1.4.3.2.3.4.6.7.7h0Z"></path>
        <path class="st4" d="M116.7,71.9v-.2c0-.4.4-.8.8-.8h4c.3,0,.6,0,.7.4.5,1.1,1,2.2,1.5,3.3.4-1,.8-2.1,1.2-3.1,0-.3.4-.6.8-.6h4.1c.5,0,.8.4.8.8,0,.6,0,1.1.1,1.7.3,3.9.5,7.8.8,11.7,0,.3-.1.5-.3.6-.1,0-.3.2-.5.2h-3.9c-.4,0-.7-.3-.8-.6,0,.2,0,.3-.3.4,0,0-.3.2-.5.2h-2.3c-.4,0-.7-.3-.8-.6,0,0,0-.3,0-.4v.2c0,.4-.4.8-.8.8h-4c-.2,0-.4,0-.5-.2-1,.6-2.1,1-3.3,1-2.8,0-5.8-1.3-7.3-3.7-.2-.4-.4-.8-.6-1.2,0-.3-.2-.6-.3-.8h0c-1.1.2-2.3.4-3.4.6-.8,0-1.6.3-2.4.4h0c.7.4.7,1.6.8,2.4.2,1.7.4,3.4.5,5.1v1.1c7.5-.7,15-.9,22.5-.6,4.6.2,9.2.5,13.7,1.1,2.2.3,4.4.6,6.6,1,1.1.2,2.1.4,3.2.6.3,0,.6,0,1,.2.3,0,.6,0,.9.2.3,0,.6.2.9.3.1,0,.2,0,.4.2.5.4.8,1.2.7,1.9,1.6,0,3.2.3,4.8.4h.6c-.9-.7-1.7-1.4-2.6-2.1-.5-.4-1-.8-1.4-1.2-.5-.4-1-.8-1.4-1.1-.4-.3-.7-.6-1.1-.9,0,0-.1,0-.2-.2-.2-.2-.4-.3-.6-.5-.3-.2-.5-.4-.8-.6-2.4-1.9-4.8-3.9-7.2-5.8-.1,0-.2-.2-.2-.4-1.8-1.4-3.5-2.9-5.3-4.4-1-.9-2.4-1.9-2.9-3.2-.7-1.8,1.1-3.6,2.9-3.1,1.6.5,3.1,1.6,4.4,2.6,1.5,1.1,3,2.3,4.5,3.4h0c.2,0,.5,0,.7.2,1.4,1.2,2.9,2.3,4.3,3.5.6.5,1.2,1,1.8,1.5.2.2.4.4.7.5.2.2.5.4.7.5,4.8,3.8,9.6,7.6,14.4,11.5.2,0,.4.3.5.4h.1s.1,0,.2,0c.2-.2.3-.4.3-.7v-9.1h0c0-1.5-.2-3.1-.6-4.6-.3-1.1-.6-2.1-1.1-3.2,0-.2-.2-.4-.3-.6-.2-.3-.3-.6-.5-.9s-.4-.6-.6-.8c-1.4-1.8-3.2-3.4-5.1-4.7-2.5-1.7-5.1-3-7.8-4.1-3.4-1.4-6.9-2.3-10.4-2.9-2.5-.4-5-.7-7.5-.8-3.5,0-7,0-10.5.4s-7.1,1.1-10.5,2.2c0,1.3.3,2.7.4,4,1.1,0,2.2.5,3.1,1l.3.3Z"></path>
        <path class="st4" d="M117.4,94.9h5.4c4.2,0,8.4,0,12.6.3,1.3,0,2.7,0,4,0,2.7,0,5.4.2,8.1.4h1.5v-.3c0,0,0-.3-.1-.4h0c-.2,0-.6-.2-.9-.3h-.4c-.5,0-.9-.2-1.4-.3-8.2-1.8-16.6-2.5-24.9-2.7-6.7-.2-13.4,0-20.1.7,0,1,.2,1.9.2,2.9,5.4-.2,10.7-.3,16.1-.3h-.1Z"></path>
        <path class="st8" d="M176.6,106.3c-.2-.2-.5-.4-.7-.6-.5-.4-.9-.7-1.4-1.1-2.2-1.8-4.5-3.6-6.7-5.4-.2-.2-.5-.4-.7-.6h-.1c-.2-.2-.4-.3-.6-.5-.2,0-.4-.3-.5-.4-.4-.3-.8-.6-1.2-1-.6-.5-1.1-.9-1.7-1.4-.3-.2-.6-.5-.9-.7-.3-.3-.7-.5-1-.8-.4-.3-.7-.6-1.1-.9-1.4-1.1-2.8-2.3-4.3-3.4-1.4-1.1-2.8-2.2-4.2-3.4h0c-.2-.2-.4-.3-.6-.5-.2-.2-.4-.3-.6-.5h-.1c-1.8-1.5-3.7-2.9-5.5-4.4-.6.8-1.2,1.5-1.8,2.3.8.6,1.6,1.3,2.4,1.9,1.2.9,2.3,1.9,3.5,2.8.2.2.5.4.7.6s.5.4.7.6c1.4,1.2,2.9,2.3,4.3,3.5l1.3,1.1c.4.3.9.7,1.3,1,.8.6,1.5,1.2,2.3,1.8.3.2.6.4.8.7.1,0,.2.2.4.3.3.2.5.4.8.6.1,0,.3.2.4.3.2,0,.3.3.5.4.5.4,1,.8,1.6,1.2.3.3.6.5,1,.8,0,0,.2,0,.2.2.1,0,.3,0,.5-.2h1.8c1.5.3,2.9,1.4,3.6,2.8.4.8.5,1.7.6,2.5.9.7,1.8,1.4,2.8,2.1.2.2.5.4.7.6l.7.5c.3.3.7.5,1,.8.6-.8,1.1-1.5,1.7-2.3-.3-.3-.7-.5-1-.8s-.4-.4-.7-.5h-.2Z"></path>
        <path class="st0" d="M120.3,105.1c0,1.4,0,2.9.3,4.2.3,1.4,1,2.7,2.2,3.6,1.9,1.4,4.4,1.7,6.7,1.6,2.2,0,4.7-.7,6.4-2.1.8-.6,1.3-1.5,1.7-2.4.4-1,.6-2,.6-2.8v-2.2h-.6c-5.8,0-11.6,0-17.3.2h0ZM133.6,111.9c-.7.7-1.8.8-2.6,0-.7-.6-.8-1.4-.9-2.3-.2-1.5-.2-3.4,1.3-4,0,0,.2,0,.3,0h.3c1.5,0,2.2,1.1,2.4,2.5.1,1.2,0,2.9-.8,3.8Z"></path>
        <path class="st0" d="M102.8,114.6h1.1c2.3,0,4.8-.7,6.4-2.3,1-1,1.4-2.2,1.7-3.6.2-1.2.3-2.4.2-3.6h-10.1v.2c.2,3.2.5,6.3.6,9.5v-.2ZM106.6,105.7s.2,0,.3,0h.3c1.5,0,2.2,1.1,2.4,2.5,0,1.2,0,2.9-.8,3.8-.7.7-1.8.8-2.6,0-.7-.6-.8-1.4-.9-2.3-.2-1.5-.2-3.4,1.3-4Z"></path>
        <path class="st0" d="M115.3,106.4h-.4c0,1.2,0,2.3-.4,3.5.3,0,.6,0,.9-.2v-3.3h0Z"></path>
        <path class="st0" d="M113.4,102.5h.5c.3.2.6.4.7.8v.3h.6v-.2c0-1.1,1.7-1.1,1.7,0v.2h.9v-.3c0-.4.3-.6.7-.8h.6c1.7,0,3.4,0,5.1,0,5,0,10.1,0,15.1,0s1,.3,1.2.8c2.7,0,5.4-.3,8-.4h1.8c2.2,0,4.5-.3,6.7-.4-.7-1.1-1.6-1.9-2.9-1.8-1.2,0-2.2.9-3.3,1.1-.2,0-.4,0-.6,0h-2.1c-1.3-.4-2.4-1.4-3.6-1.8-2.3-.6-4.4,1.3-6.6,1.7-1.4.2-2.7-.2-4-.7-1.1-.5-2.4-1.1-3.7-.9-1.4.3-2.5,1.2-3.9,1.5-1.3.2-2.5-.2-3.6-.7-1-.5-2-1.2-3.1-1.5-1.3-.3-2.2.7-3.2,1.3-2.3,1.4-4.7.4-7-.5-1-.4-2.1-.8-3.2-.6-.8,0-1.2.6-1.8,1.1-.7.5-1.6.9-2.5,1.1v.9c3.8,0,7.6,0,11.4.2v-.3Z"></path>
        <path class="st0" d="M162.1,112.1c0-.2.1-.3.2-.4.1,0,.3-.2.4-.2h.4c.6.2,1.2.3,1.9.4.8,0,1.6,0,2.4-.3,1.1-.4,1.7-1.4,2.1-2.5.2-.8.3-1.6.3-2.4h0v-1.1c0-.4-.1-.9-.3-1.3v-.2c-.5-1.1-1.5-1.9-2.7-2h-.6c-.2,0-.4,0-.6.2h-.2s-.2,0-.3.2c-.1,0-.3.2-.4.2-.8.6-1.4,1.6-1.8,2.6-.1.3-.2.6-.3.9,0,.3-.3.5-.5.6h-.2c-.4,0-.9,0-1.4-.2-.9-.5-1.6-1.4-2.1-2.2h-.4c-2.5.2-5,.4-7.6.5h-1.8c-2.7.2-5.4.3-8,.4,0,1,0,2-.3,3.1-.5,2.6-1.8,5-4.1,6.4-2.5,1.5-5.5,2-8.4,2-2.9,0-6-1-8-3.2-1.8-2-2.4-4.8-2.4-7.5h-.7v4.3c0,.3-.4.6-.7.6h-.2c-.8,0-1.7,0-2.5.5s-.4.2-.6.4c-.6.5-.9,1.1-.9,1.8h0c0,.7.4,1.4,1,1.8,1,.6,2.2.6,3.2.5h0c.5,0,.9.4.9.9s-.4.8-.9.9c-2.3.3-5-.5-5.8-2.8-2.1,1.4-4.7,1.9-7.2,1.9h-.6v.7h10.3c.5,0,.8.4.8.8.3,2.5.5,5,.8,7.6,5.1,1.6,10.8,1.5,16,.4,2.9-.6,5.7-1.5,8.2-3,1-.6,2-1.3,2.8-2.2.7-.7,1.3-1.7,1.7-2.6.4-1,2-.6,1.7.5-1,2.8-3.4,4.8-6,6.2-5.8,3.2-12.9,4.1-19.4,3.4-1.6-.2-3.2-.5-4.7-.9,0,.5,0,1.1.2,1.6,0,.9.2,1.8.3,2.7,4.1,1.3,8.4,1.7,12.6,1.7,6.8,0,13.8-1.5,19.9-4.5.3-.1.5-.3.7-.4.3-.1.6-.3.8-.5.3-.2.6-.3.9-.5,6-3.6,10.7-9.1,11.7-16.2l.4.4Z"></path>
        <path class="st0" d="M119.3,75.3l-1.1,1.1c0,1.5,0,3,0,4.5l1,1,.2.2c.2.2.3.5.2.8v.2c0,.2-.3.3-.4.5-.2.2-.3.4-.5.5h1.8v-4.2c0-.9,1.3-1.1,1.6-.2.4,1.1.7,2.2,1.1,3.3,0,.3.2.7.3,1h0c0,0,1.1,0,1.1,0,0-.2,0-.4.2-.6.3-1.3.7-2.6,1-3.9.2-.9,1.6-.7,1.6.2,0,1.4,0,2.9.2,4.3h2.3v-.9c-.2-3.6-.5-7.3-.7-10.9h-2.8c-.6,1.5-1.2,3-1.7,4.4-.2.6-1.2.9-1.5.2-.7-1.5-1.4-3.1-2-4.6h-2.6v.6c.4.4.8.8,1.2,1.3.2.3.2.7,0,.9h0c0,0-.4.2-.4.2Z"></path>
        <path class="st0" d="M115.7,76.6h0Z"></path>
        <path class="st0" d="M116.1,81.3c-.2.2-.5.5-.8.6-.5.3-1,.5-1.6.5h-.8c-.4,0-.7-.2-1.1-.3-.6-.2-1.1-.6-1.5-1.1-.2-.2-.3-.4-.5-.7v-.2h0c-.9,0-1.9.3-2.8.4v.3c0,.3.2.6.3.8.2.4.5.8.8,1.2,1.5,1.6,4.1,2.6,6.2,2,.8-.2,1.4-.6,2.1-1,.2-.2.4-.4.7-.5l.2-.2h0l.4-.4-.4-.4c-.2-.2,0,0,0,0l-.7-.7c0,0-.2-.2-.3-.4h-.2Z"></path>
        <path class="st0" d="M116.6,75.7l.4-.4.5-.5.2-.2s0-.2-.2-.2c-.2-.3-.5-.5-.8-.7-.8-.6-1.8-1-2.9-1.2,0,.8.2,1.7.3,2.5.8.2,1.5.5,2.1,1.1,0,0,.3-.3.4-.4Z"></path>
        <path d="M132.1,105.6h-.3c-.1,0-.2,0-.3,0-1.6.7-1.5,2.5-1.3,4,0,.9.2,1.7.9,2.3.8.7,1.9.6,2.6,0,.9-.9,1-2.6.8-3.8-.2-1.4-.9-2.6-2.4-2.5Z"></path>
        <path d="M106.1,112c.8.7,1.9.6,2.6,0s1-2.6.8-3.8c-.2-1.4-.9-2.6-2.4-2.5h-.3c0,0-.2,0-.3,0-1.6.7-1.5,2.5-1.3,4,0,.9.2,1.7.9,2.3Z"></path>
        <path class="st0" d="M91.8,73.4c-4.9-1.3-9.7-2.7-14.6-4-1.7-.5-3.4-.9-5.1-1.4-.7-.2-1.5-.3-2.2-.6h-.3c-.6.2-1.1.4-1.7.6-1,.4-1.9.7-2.9,1.1.9.3,1.8.6,2.6.9,5.9,2,11.6,4.2,17.4,6.3,3.2,1.2,6.3,2.4,9.5,3.6.7.3,1.4.5,2.1.8,1.7-.3,3.5-.6,5.2-1,2.7-.5,5.3-1,7.9-1.5-1.2-.3-2.4-.6-3.6-1-4.8-1.3-9.6-2.6-14.5-4l.2.2Z"></path>
        <path class="st0" d="M25.7,77.3c1.8-.6,3.5-1.1,5.3-1.7,5.2-1.7,10.4-3.3,15.7-5,3.5-1.1,7.1-2.3,10.7-3.2.3,0,.7-.2,1.1-.2s.8.2,1.2.3c.9.3,1.8.6,2.7.9.7-.3,1.4-.5,2.1-.8,1.5-.5,2.9-1.1,4.4-1.6-.4-3.2-.8-6.4-1.2-9.6-1.2-10.9-2.2-21.9-3.7-32.8-1,.4-1.9.8-2.9,1.2-6.1,2.7-12.2,5.5-18.4,8.2-6.3,2.8-12.7,5.7-19.1,8.2,0,1,.1,2.1.2,3.1.4,6,.8,12.1,1.1,18.1.3,4.9.5,9.9.8,14.8h0Z"></path>
        <path class="st0" d="M70.6,65.9h0c3.1.8,6.2,1.7,9.3,2.5,5,1.4,10,2.7,14.9,4.1,4.5,1.3,9.1,2.5,13.7,3.7,1.3.4,2.7.7,4,1.1-.3-3.3-.7-6.5-1.1-9.8-.7-6-1.4-12-2-18-.5-4.6-1-9.3-1.3-14-.5-.2-1-.4-1.6-.5-7.1-2.4-14.2-4.4-21.3-6.5-5.9-1.7-11.9-3.4-17.8-4.9-.6-.2-1.2-.3-1.9-.5.4,3.1.8,6.2,1.2,9.2,1.3,11.1,2.3,22.3,3.7,33.5h.2ZM95.6,64.9c0,1.2-.3,2.6-1.4,3.2s-2.6.3-3.6-.4c-1.1-.8-1.5-2.1-1.7-3.4-.2-1.7-.2-3.3-.2-5s1.7-1.1,1.7,0c0,1.7,0,3.5.3,5.2.2,1.1.8,2,2,2.1.5,0,.7,0,.9-.5.2-.5.3-1.1.3-1.6,0-1.5,0-3-.2-4.5,0-1.1,1.7-1.1,1.7,0,0,1.6.3,3.1.2,4.7v.2ZM102.6,63.9c.2,1.4-.3,2.5-1.7,2.9-.9.3-2,.3-2.9,0v1.8c0,1.1-1.7,1.1-1.7,0,0-2.5-.2-4.9-.4-7.3,0-.4.4-.9.9-.9,2.3,0,5.4.7,5.8,3.4h0ZM83.6,35.2c1.1-.5,2.4-.5,3.5-.4,1.3,0,2.6.3,3.8.6,1.8.4,3.5.9,5.2,1.8,1.3.6,2.8,1.6,2.6,3.2,0,.5-.2.9-.5,1.2,0,4.6-.3,9.2-.5,13.8,0,.6-.5,1-1.1.8-3.6-.8-7.3-1.6-10.9-2.7-.4,0-.6-.4-.6-.8,0-.9-.2-1.8-.3-2.7-.5-3.7-1.2-7.5-1.8-11.2-.3-.3-.5-.6-.6-1-.3-1,.3-2,1.2-2.4v-.2ZM83.1,58.1c1.2-1,2.7-1.2,4.2-.7,1,.4.6,2-.5,1.7-.9-.3-1.9-.3-2.6.4-.7.6-1,1.6-.9,2.5,0,.9.5,1.8,1.2,2.4.8.7,1.8.7,2.7.3,1-.4,1.5,1.3.5,1.7-1.5.5-3.1.3-4.3-.7-1-.9-1.6-2.3-1.7-3.7s.4-2.9,1.5-3.8h0Z"></path>
        <path class="st0" d="M100.2,65.2c.8-.2.9-.5.7-1.3-.4-1.2-1.9-1.5-3.2-1.7,0,.9,0,1.9.2,2.8.7.2,1.6.3,2.3.2Z"></path>
        <path class="st6" d="M91.5,42c-2.2-.4-4.4-1-6.4-2,.4,2.1.7,4.2,1,6.3.3,1.9.7,3.8.8,5.6,3.1.9,6.2,1.6,9.3,2.3.2-3.9.4-7.9.4-11.8-1.7.3-4-.2-5.1-.4Z"></path>
        <path class="st0" d="M84.1,37.3c0,0,0,.2.2.3.6.6,1.4.9,2.1,1.2,1.8.8,3.8,1.3,5.7,1.6.6,0,5.4.9,4.9-.5-.2-.5-.8-.8-1.2-1-.5-.3-1-.5-1.5-.7-1.2-.5-2.5-.9-3.8-1.2-1.1-.2-2.2-.4-3.3-.5-.9,0-2-.2-2.9.3-.2,0-.3.2-.3.3v.2h.1Z"></path>
        <path d="M83.1,38.7c.7,3.7,1.3,7.4,1.8,11.2,0,.9.3,1.8.3,2.7s.3.7.6.8c3.6,1.1,7.3,1.9,10.9,2.7.6,0,1.1-.3,1.1-.8.2-4.6.5-9.2.5-13.8.3-.3.4-.7.5-1.2,0-1.6-1.4-2.6-2.6-3.2-1.6-.8-3.4-1.4-5.2-1.8-1.2-.3-2.5-.5-3.8-.6-1.2,0-2.4,0-3.5.4-.9.4-1.5,1.4-1.2,2.4,0,.4.4.7.6,1v.2ZM96.1,54.2c-3.1-.7-6.2-1.4-9.3-2.3,0-1.9-.5-3.8-.8-5.6-.3-2.1-.7-4.2-1-6.3,2,1,4.2,1.6,6.4,2,1.1.2,3.4.7,5.1.4,0,3.9-.2,7.9-.4,11.8ZM84.3,36.8c.8-.4,2-.3,2.9-.3s2.2.3,3.3.5c1.3.3,2.6.6,3.8,1.2.5.2,1,.5,1.5.7.4.2,1,.5,1.2,1,.5,1.4-4.3.6-4.9.5-1.9-.4-3.9-.9-5.7-1.6-.7-.3-1.5-.7-2.1-1.2,0,0,0,0-.2-.3v-.2c0,0,0-.2.3-.3h-.1Z"></path>
        <path d="M83.3,65.6c1.2,1.1,2.8,1.3,4.3.7,1-.4.6-2-.5-1.7-1,.3-1.9.4-2.7-.3-.7-.6-1.1-1.5-1.2-2.4,0-.9.2-1.9.9-2.5.8-.7,1.7-.7,2.6-.4,1,.4,1.5-1.3.5-1.7-1.4-.5-3-.3-4.2.7-1.1.9-1.6,2.4-1.5,3.8,0,1.4.7,2.8,1.7,3.7h0Z"></path>
        <path d="M93.7,60.2c0,1.5.3,3,.2,4.5,0,.5,0,1.1-.3,1.6-.2.4-.4.5-.9.5-1.2,0-1.8-1-2-2.1-.4-1.7-.2-3.5-.3-5.2,0-1.1-1.7-1.1-1.7,0,0,1.7,0,3.3.2,5,.2,1.3.6,2.6,1.7,3.4,1,.7,2.5,1.1,3.6.4s1.3-2.1,1.4-3.2c0-1.6,0-3.1-.2-4.7,0-1.1-1.8-1.1-1.7,0v-.2Z"></path>
        <path d="M95.9,61.3c.2,2.4.3,4.9.4,7.3,0,1.1,1.8,1.1,1.7,0v-1.8c1,.2,2,.2,2.9,0,1.4-.4,1.9-1.5,1.7-2.9-.4-2.7-3.5-3.3-5.8-3.4-.4,0-.9.4-.9.9h0ZM100.8,63.9c.2.8,0,1.1-.7,1.3-.7.2-1.6,0-2.3-.2,0-.9,0-1.9-.2-2.8,1.3,0,2.8.5,3.2,1.7Z"></path>
        <path class="st2" d="M50.7,118.7c1.9-.6,3.9-1.1,5.8-1.6,1-.3,2.1-.6,3.2-.8h.4c-.2-3.4-.4-6.9-.6-10.3-.7-12.3-1.3-24.5-2-36.8-1.4.4-2.7.8-4.1,1.2-4.7,1.4-9.4,2.9-14.2,4.4-4.9,1.5-9.8,3.1-14.6,4.7-2.1.7-4.1,1.3-6.2,2-.2,2.7-.2,5.3-.2,8,0,7,.3,14,.8,20.9.3,5.2.7,10.5,1.3,15.7,0,.3,0,.7.1,1v.4h.2c.6,0,1.2-.3,1.8-.5,4.3-1.2,8.6-2.4,12.9-3.7,5.1-1.5,10.3-3,15.4-4.5h0ZM28.3,113.7c-.6,0-1.2,0-1.7,0-.3,0-.6,0-.9,0-.5-.2-.6-.6-.7-1-.1-.6-.2-1.1-.3-1.7-.6-3.6-1.2-7.2-1.5-10.8,0-.2,0-.4.2-.5,1.3-3.1,3.3-5.8,5-8.7h0c0-1.1-.1-2.2-.2-3.3,0-.3,0-.5.3-.6h.2c2.1-.5,4.2-1,6.4-1.6,2.4-.6,4.9-1.2,7.3-1.7.3,0,.5,0,.8,0,.6,0,.8.5.9,1,.2.7.3,1.4.4,2.1v.5c2.3,1.7,4.6,3.4,7,5,0,0,.2.2.3.3h0v.2h0c0,.7,0,1.4.2,2,.4,4.6.8,9.1,1.2,13.7,0,.3-.2.6-.4.7-.9.4-1.8.8-2.8,1.1-1.6.6-3.2,1.3-4.8,1.9-1.2.5-2.5,1-3.7,1.5-.3,0-.5.2-.8.3h0c-.5.2-1,.2-1.5.2-3.7.3-7.5,0-11.2-.2h.3Z"></path>
        <path class="st2" d="M46.1,124.5c6-1.9,12-3.9,18.1-5.7.2,0,.3,0,.5,0-1-.2-2.1-.3-3.1-.5-.5,0-.9,0-1.3-.2h0c-1.1.2-2.1.5-3.2.8-4.6,1.2-9.1,2.6-13.6,3.9-5.1,1.5-10.2,3-15.3,4.5-.7.2-1.4.4-2.1.6,2.8,0,5.7.3,8.5.6,3.9-1.2,7.8-2.5,11.8-3.8h-.2Z"></path>
        <path class="st2" d="M59.1,69.1c.2,3.3.4,6.7.5,10,.7,12.5,1.4,25,2.1,37.4,1.6.3,3.1.5,4.7.8.8,0,1.6.3,2.4.4,1.3,0,2.6,0,3.9,0,6.6,0,13.3,0,19.9.2,2.9,0,5.8,0,8.8,0,0-1.6-.2-3.2-.3-4.8-.4-5.4-.8-10.7-1.2-16.1-.3-4.1-.7-8.3-1.1-12.4v-1.2h0s0,0,0,0c0,0-.3,0-.4-.2-.4-.2-.8-.3-1.2-.5-1.2-.5-2.3-.9-3.5-1.3-6.2-2.4-12.5-4.7-18.8-7-5.1-1.9-10.3-3.6-15.5-5.3h-.3ZM88.9,96.8c0-1.1,1.7-1.1,1.7,0v4.4c.5-.7,1-1.4,1.5-2.1.6-.9,2.1,0,1.5.9-.8,1.1-1.6,2.3-2.4,3.4,1,1.2,2,2.5,3,3.7.7.9-.5,2.1-1.2,1.2-.8-1-1.6-1.9-2.3-2.9v1.8c0,1.1-1.7,1.1-1.7,0v-10.4h0ZM82.1,95.4c0-1.1,1.8-1.1,1.7,0,0,3.1,0,6.1,0,9.2,1.2.3,2.5.7,3.7,1,1.1.3.6,2-.5,1.7-1.4-.4-2.9-.8-4.3-1.2-.4,0-.6-.5-.6-.8,0-3.3,0-6.6,0-9.9ZM80.9,94.7v10.2c0,1.1-1.7,1.1-1.7,0v-10.2c0-1.1,1.7-1.1,1.7,0ZM69.3,91.6c1.4,3.1,2.9,6.3,4.2,9.4,1-2.3,2-4.7,3.1-6.9.4-.8,1.6-.4,1.6.4v10.1c0,1.1-1.7,1.1-1.7,0v-6.3c-.8,1.7-1.5,3.4-2.2,5.2-.3.8-1.3.8-1.7,0-1-2.4-2-4.8-3.1-7.1,0,2.3.2,4.5.2,6.8s-1.7,1.1-1.7,0c0-3.7-.3-7.4-.4-11.1,0-.8,1.3-1.2,1.6-.4h0Z"></path>
        <path d="M69.8,103.2c0-2.3-.2-4.5-.2-6.8,1.1,2.4,2.1,4.7,3.1,7.1.3.8,1.3.8,1.7,0,.7-1.7,1.4-3.4,2.2-5.2v6.3c0,1.1,1.7,1.1,1.7,0v-10.1c0-.8-1.2-1.2-1.6-.4-1.2,2.2-2.2,4.6-3.1,6.9-1.3-3.2-2.8-6.3-4.2-9.4-.4-.8-1.6-.4-1.6.4,0,3.7.3,7.4.4,11.1,0,1.1,1.8,1.1,1.7,0h0Z"></path>
        <path d="M81,105v-10.2c0-1.1-1.8-1.1-1.7,0v10.2c0,1.1,1.7,1.1,1.7,0Z"></path>
        <path d="M82.7,106.1c1.4.4,2.9.8,4.3,1.2,1.1.3,1.5-1.4.5-1.7-1.2-.3-2.5-.7-3.7-1,0-3.1,0-6.1,0-9.2s-1.7-1.1-1.7,0c0,3.3-.2,6.6,0,9.9,0,.4.3.7.6.8Z"></path>
        <path d="M90.7,107.2v-1.8c.8,1,1.6,1.9,2.3,2.9.7.9,1.9-.4,1.2-1.2-1-1.2-2-2.5-3-3.7.8-1.1,1.6-2.3,2.4-3.4.7-.9-.9-1.8-1.5-.9-.5.7-1,1.4-1.5,2.1v-4.4c0-1.1-1.7-1.1-1.7,0v10.4c0,1.1,1.8,1.1,1.7,0h0Z"></path>
        <path class="st0" d="M43.3,84.8c0,0,0,0,0,0Z"></path>
        <path class="st0" d="M37.8,90c-2.2.6-4.4,1.3-6.6,1.7,2.5,1.6,5,3.1,7.6,4.5.4-.2.9-.3,1.3-.5,2.3-.8,4.5-1.6,6.8-2.4.9-.3,1.9-.7,2.8-1-1.9-1.4-3.8-2.7-5.7-4.1-.6.2-1.2.4-1.8.5-1.5.5-2.9.9-4.4,1.3Z"></path>
        <path class="st0" d="M43.6,86.5h0Z"></path>
        <path class="st0" d="M30.8,90.1c.8-.2,1.5-.3,2.2-.5,1.7-.4,3.4-.9,5.1-1.4,1.3-.4,2.6-.8,4-1.2.3,0,.7-.2,1-.3v-.3c0-.3,0-.7-.2-1,0,0,0-.3,0-.4-.4,0-.8.2-1.2.3-3.9.9-7.9,1.9-11.8,2.8,0,.8,0,1.5.1,2.3.3,0,.5,0,.8-.2h.1Z"></path>
        <path class="st0" d="M39.5,109.3c-.5-3.8-1-7.6-1.5-11.4-4.4,1-8.8,1.8-13.2,2.7.3,3.5.9,7,1.5,10.5,0,.3.1.5.2.8,1.2,0,2.4.2,3.5.3,1.9,0,3.8.2,5.7.2h4.1c0-1-.2-2-.4-3h0Z"></path>
        <path class="st0" d="M39.7,98.5c.6,4.5,1.2,8.9,1.7,13.4.3,0,.7-.3,1-.4,1.3-.5,2.6-1,3.9-1.6,1.4-.5,2.7-1.1,4.1-1.6.5-.2.9-.4,1.4-.6h0c0-.5,0-1,0-1.4-.4-4.2-.8-8.4-1.1-12.7-.3,0-.5.2-.8.3-3.4,1.2-6.8,2.4-10.3,3.7,0,.3,0,.7,0,1h0Z"></path>
        <path class="st0" d="M42.6,84.4h0Z"></path>
        <path class="st0" d="M52.2,107.6h0Z"></path>
        <path class="st0" d="M43.2,87.1h0Z"></path>
        <path class="st0" d="M29.3,92.3c-1.3,2.2-2.7,4.3-3.9,6.6,3.7-.7,7.4-1.5,11-2.3-2.4-1.3-4.8-2.8-7.2-4.3h0Z"></path>
        <path d="M41,113.7h0c.3,0,.5-.2.8-.3,1.2-.5,2.5-1,3.7-1.5,1.6-.6,3.2-1.3,4.8-1.9.9-.4,1.9-.7,2.8-1.1.2,0,.4-.4.4-.7-.4-4.6-.8-9.1-1.2-13.7,0-.6,0-1.3-.2-1.9h0v-.3h0c0,0-.2-.2-.3-.3-2.3-1.7-4.7-3.3-7-5v-.5c0-.7-.3-1.4-.4-2.1,0-.5-.3-1-.9-1s-.6,0-.8,0c-2.5.5-4.9,1.1-7.3,1.7-2.1.5-4.2,1-6.4,1.6h-.2c-.2,0-.3.3-.3.6,0,1.1.1,2.2.2,3.3h0c-1.7,2.9-3.7,5.6-5,8.7-.1,0-.2.3-.2.5.3,3.6.9,7.2,1.5,10.8,0,.6.2,1.1.3,1.7,0,.4.2.9.7,1,.3,0,.6,0,.9,0,.6,0,1.2,0,1.7,0,3.7.3,7.5.5,11.2.2.5,0,1,0,1.5-.2h-.3ZM52.2,107.6h0ZM50.6,93.6c.4,4.2.8,8.4,1.1,12.7,0,.5,0,1,0,1.4h0c-.5.2-.9.4-1.4.6-1.4.5-2.7,1.1-4.1,1.6-1.3.5-2.6,1-3.9,1.6-.3,0-.7.3-1,.4-.5-4.5-1.1-8.9-1.7-13.4,0-.3,0-.7,0-1,3.4-1.2,6.8-2.5,10.3-3.7.3,0,.5-.2.8-.3h0ZM43.6,86.5h0ZM43.3,84.8c0,0,0,0,0,0ZM43.9,88.1c1.9,1.4,3.8,2.7,5.7,4.1-.9.3-1.9.7-2.8,1-2.3.8-4.5,1.6-6.8,2.4-.4.2-.9.3-1.3.5-2.6-1.4-5.1-2.9-7.6-4.5,2.2-.4,4.4-1.1,6.6-1.7,1.5-.4,2.9-.8,4.4-1.3.5-.2,1.2-.3,1.8-.5ZM43.2,87.1h0ZM42.6,84.4h0ZM41.6,85.2c.4,0,.8-.2,1.2-.3,0,0,0,.3,0,.4,0,.3,0,.7.2,1v.3c-.3,0-.7.2-1,.3-1.3.4-2.6.8-4,1.2-1.7.5-3.4.9-5.1,1.4-.7.2-1.5.4-2.2.5-.3,0-.5,0-.8.2,0-.8,0-1.5-.1-2.3,3.9-1,7.8-1.9,11.8-2.8h-.1ZM29.3,92.3c2.3,1.5,4.7,3,7.2,4.3-3.7.8-7.4,1.5-11,2.3,1.2-2.3,2.6-4.4,3.9-6.6h-.1ZM35.7,112.4c-1.9,0-3.8,0-5.7-.2-1.2,0-2.4,0-3.5-.3,0-.3-.1-.6-.2-.8-.6-3.5-1.2-7-1.5-10.5,4.4-.9,8.8-1.7,13.2-2.7.5,3.8,1,7.6,1.5,11.4,0,1,.2,2,.4,3h-4.2Z"></path>
        <path class="st1" d="M100.3,168c1.2-.8,2.4-1.5,3.5-2.3-1.8-2.1-4.2-5.4-1.3-7.3,2.8-1.8,6.3.3,8.5,2.4,1.6-1.4,3.2-2.7,4.9-4.1-1-12.4-2.1-24.8-3.4-37.1h-1.3c-7.1,0-14.2-.2-21.3-.3-6.3,0-12.5-.2-18.8,0h-2.4c.2,4.3.5,8.6.8,12.9,1.1,14.9,2.7,29.8,3.4,44.7,4.1-.9,8.1-1.7,12.2-2.5,3.2-.7,6.4-1.3,9.6-2,.2-.6.7-1.1,1.1-1.5.6-.6,1.4-1,2.1-1.5.8-.5,1.5-1,2.3-1.4h.1ZM95.1,158.8c-3.9,2-9.3,2.4-12.3-1.4-1.5-2-2-4.7-1.9-7.2.2-3.2,1.6-6.1,3.1-8.8,2.8-5.1,7.1-10.5,13.5-10.1,3.2.3,6,1.8,7.8,4.5,1.7,2.6,1.9,5.6,1.2,8.5-.9,3.4-2.9,6.3-5.1,9-1.8,2.2-3.8,4.3-6.4,5.6h.1Z"></path>
        <path class="st1" d="M67.1,119.6c-1.4.4-2.8.8-4.1,1.3-6.4,2-12.8,4-19.1,6.1-6.3,2-12.7,4.1-19,6,.2,3.4.4,6.8.6,10.3.8,12.1,1.8,24.1,3.1,36.1.7,0,1.4,0,2.1-.1,9.3-.5,18.6-1,27.9-1.5,3.5-.2,7.1-.3,10.6-.5.7,0,1.5,0,2.2-.1-.2-4.3-.5-8.6-.8-12.9-1.1-14.9-2.7-29.7-3.4-44.7h0ZM59.6,151.1c-.9,3.4-2.9,6.3-5.1,9-1.8,2.2-3.8,4.3-6.4,5.6-3.9,2-9.3,2.4-12.3-1.4-1.5-2-2-4.7-1.9-7.2.2-3.2,1.6-6.1,3.1-8.8,2.8-5.1,7.1-10.5,13.5-10.1,3.2.3,6,1.8,7.8,4.5,1.7,2.6,1.9,5.6,1.2,8.5h.1Z"></path>
        <path class="st5" d="M95.9,136.8c-.8,1-1.5,2-2.3,3.1-1.7,2.4-3.2,5-4.6,7.6-.7,1.2-1.3,2.4-1.9,3.6-.3.5-.5,1.1-.8,1.6,0,.1-.2.4-.2.5,0,.2.2,0,.2,0,1.2-2.8,2.7-5.5,4.2-8.1,1.4-2.5,3-4.9,4.7-7.2.2-.3.4-.6.7-.9,0-.1.4-.4.5-.6,0-.4-.5.4-.6.5h.1Z"></path>
        <path class="st5" d="M105.2,142.3c.7-4.7-2.8-9-7.5-9.4-6.5-.4-10.3,5.8-12.9,10.8-1.2,2.4-2.2,4.9-2.1,7.7,0,2.1.6,4.2,2.2,5.6,3,2.7,7.7,1.4,10.7-.6,2.2-1.5,4.1-3.7,5.7-5.8,1.8-2.5,3.4-5.2,3.9-8.3ZM98.2,136.8c-.2.7-.9,1.3-1.3,1.9-.5.6-.9,1.3-1.4,2-1,1.5-2,3.1-2.9,4.6-1.7,2.8-3.3,5.7-4.6,8.8-1.1,2-4.1.6-3.3-1.5.6-1.6,1.4-3.1,2.2-4.5,1.7-3.2,3.5-6.2,5.5-9.2.9-1.2,1.7-2.6,2.8-3.7,1.3-1.3,3.6-.1,3.1,1.7h0Z"></path>
        <path d="M101.5,153.2c2.2-2.6,4.2-5.6,5.1-9,.8-2.9.5-5.9-1.2-8.5-1.8-2.7-4.6-4.2-7.8-4.5-6.5-.4-10.7,5-13.5,10.1-1.5,2.7-3,5.6-3.1,8.8,0,2.5.3,5.2,1.9,7.2,3,3.9,8.4,3.5,12.3,1.4,2.6-1.3,4.6-3.4,6.4-5.6h-.1ZM95.6,156.5c-3,2-7.7,3.3-10.7.6-1.6-1.4-2.1-3.6-2.2-5.6,0-2.8.8-5.3,2.1-7.7,2.6-5,6.4-11.2,12.9-10.8,4.7.4,8.2,4.7,7.5,9.4-.4,3.1-2,5.8-3.9,8.3-1.6,2.1-3.5,4.4-5.7,5.8Z"></path>
        <path d="M95.1,135.1c-1.1,1.1-1.9,2.4-2.8,3.7-2,2.9-3.8,6-5.5,9.2-.8,1.5-1.6,3-2.2,4.5-.8,2.1,2.2,3.5,3.3,1.5,1.3-3,2.9-5.9,4.6-8.8.9-1.6,1.9-3.1,2.9-4.6.5-.7.9-1.3,1.4-2,.4-.6,1.1-1.2,1.3-1.9.5-1.8-1.8-3-3.1-1.7h0ZM96.1,137c-.2.3-.4.6-.7.9-1.7,2.3-3.2,4.7-4.7,7.2-1.5,2.6-3,5.3-4.2,8.1,0,0-.2.3-.2,0s0-.4.2-.5c.2-.5.5-1.1.8-1.6.6-1.2,1.2-2.4,1.9-3.6,1.4-2.6,2.9-5.1,4.6-7.6.7-1.1,1.5-2.1,2.3-3.1,0,0,.6-.8.6-.5s-.4.5-.5.6h-.1Z"></path>
        <path class="st5" d="M48.9,143.8c-.8,1-1.5,2-2.3,3.1-1.7,2.4-3.2,5-4.6,7.6-.7,1.2-1.3,2.4-1.9,3.6-.3.5-.5,1.1-.8,1.6,0,.1-.2.4-.2.5,0,.2.2,0,.2,0,1.2-2.8,2.7-5.5,4.2-8.1,1.4-2.5,3-4.9,4.7-7.2.2-.3.4-.6.7-.9,0-.1.4-.4.5-.6,0-.4-.5.4-.6.5h0Z"></path>
        <path class="st5" d="M50.6,139.9c-6.5-.4-10.3,5.8-12.9,10.8-1.2,2.4-2.2,4.9-2.1,7.7,0,2.1.6,4.2,2.2,5.6,3,2.7,7.7,1.4,10.7-.6,2.2-1.5,4.1-3.7,5.7-5.8,1.8-2.5,3.4-5.2,3.9-8.3.7-4.7-2.8-9-7.5-9.4ZM51.2,143.8c-.2.7-.9,1.3-1.3,1.9-.5.6-.9,1.3-1.4,2-1,1.5-2,3.1-2.9,4.6-1.7,2.8-3.3,5.7-4.6,8.8-1.1,2-4.1.6-3.3-1.5.6-1.6,1.4-3.1,2.2-4.5,1.7-3.2,3.5-6.2,5.5-9.2.9-1.2,1.7-2.6,2.8-3.7,1.3-1.3,3.6-.1,3.1,1.7h0Z"></path>
        <path d="M50.6,138.2c-6.5-.4-10.7,5-13.5,10.1-1.5,2.7-3,5.6-3.1,8.8,0,2.5.3,5.2,1.9,7.2,3,3.9,8.4,3.5,12.3,1.4,2.6-1.3,4.6-3.4,6.4-5.6,2.2-2.6,4.2-5.6,5.1-9,.8-2.9.5-5.9-1.2-8.5-1.8-2.7-4.6-4.2-7.8-4.5h-.1ZM58.2,149.3c-.4,3.1-2,5.8-3.9,8.3-1.6,2.1-3.5,4.4-5.7,5.8-3,2-7.7,3.3-10.7.6-1.6-1.4-2.1-3.6-2.2-5.6,0-2.8.8-5.3,2.1-7.7,2.6-5,6.4-11.2,12.9-10.8,4.7.4,8.2,4.7,7.5,9.4Z"></path>
        <path d="M48.1,142.1c-1.1,1.1-1.9,2.4-2.8,3.7-2,2.9-3.8,6-5.5,9.2-.8,1.5-1.6,3-2.2,4.5-.8,2.1,2.2,3.5,3.3,1.5,1.3-3,2.9-5.9,4.6-8.8.9-1.6,1.9-3.1,2.9-4.6.5-.7.9-1.3,1.4-2,.4-.6,1.1-1.2,1.3-1.9.5-1.8-1.8-3-3.1-1.7h0ZM49,143.9c-.2.3-.4.6-.7.9-1.7,2.3-3.2,4.7-4.7,7.2-1.5,2.6-3,5.3-4.2,8.1,0,0-.2.3-.2,0s0-.4.2-.5c.2-.5.5-1.1.8-1.6.6-1.2,1.2-2.4,1.9-3.6,1.4-2.6,2.9-5.1,4.6-7.6.7-1.1,1.5-2.1,2.3-3.1,0,0,.6-.8.6-.5s-.4.5-.5.6h0Z"></path>
        <path class="st0" d="M135.6,148.4c-1-1.2-1.9-2.4-2.9-3.7-1.8,1.5-3.5,3-5.2,4.5-5.3,4.5-10.5,9-15.8,13.4-.3.3-.9.4-1.2,0-.9-1-2-1.8-3.2-2.5-1-.5-2.3-1-3.4-.4-.5.3-.9.6-.9,1.3s.4,1.1.7,1.6c.6,1,1.4,1.9,2.2,2.7.4.4.3,1.1-.2,1.3-1.4.9-2.8,1.8-4.2,2.7-1.2.8-2.4,1.5-3.6,2.3-.6.4-1.3,1-1.5,1.6,0,.5-.2.9.3,1.1.7.4,1.8.5,2.6.5s1.9,0,2.8-.3c1.8-.5,3.5-1.5,4.7-2.8.8-.8,2,.4,1.2,1.2-1.3,1.4-3,2.5-4.8,3.1.4.4.9.6,1.3.7,1.1.3,2.2.3,3.3,0,1.9-.5,3.4-2,4-3.9.3-1.1,2-.6,1.7.5-.3,1.2-1,2.2-1.8,3.1.5.3,1.4.4,1.9.5,1,0,1.8-.1,2.5-.8,2.1-1.9,1.7-5,.8-7.3,0-.4,0-.8.4-1,4.9-3,9.9-5.8,14.9-8.7,2-1.2,4.1-2.5,6-3.8.6-.4,1.2-.8,1.8-1.2-.4-.5-.7-.9-1.1-1.4-1.1-1.4-2.2-2.8-3.2-4.1v-.2Z"></path>
        <path class="st4" d="M149.5,140.9c-.9-1.9-2.7-3.6-4.8-3.9-2.3-.3-4.5.6-6.4,1.8-1.9,1.1-3.6,2.3-5.4,3.5,1.4,1.7,2.7,3.4,4.1,5.1,1.9,2.3,3.6,4.9,5.6,7,.1,0,.3-.2.4-.3.7-.5,1.3-.9,1.9-1.4,1.8-1.4,3.5-3,4.4-5.1.8-2,1.1-4.6.2-6.6h0Z"></path>
        <path d="M148.1,153.8c0-.5-.2-.9-.2-1.4,1.1-1.1,2.1-2.3,2.8-3.7,1-2.3,1.5-4.9.8-7.4-.6-2.3-2.5-4.5-4.6-5.5-2.4-1.1-5-.7-7.3.3v-1.6c2.3-.6,4.5-1.3,6.7-2.2.8-.4,1.7-.7,2.5-1.1,1,1.4,2.6,2.3,4.5,1.9.8-.2,2.2-1.2,2.9-.7.6.5,1.1,1.2,1.8,1.6,1.1.7,2.4.7,3.6.5,1-.2,1.7-.8,2.4-1.5s.4-.4.8-.5c.6,0,1.1.3,1.6.5,1.2.5,2.8.3,3.9-.3,1.9-1.1,2.3-3.5,1.8-5.5,0-.3-.3-.5-.6-.6-1.4-.3-3-.9-3.4-2.5-.3-1-.1-2.3,0-3.3.4-2.1,1.5-4,2.8-5.8,1.2-1.6,2.5-3.1,3.8-4.6.6.5,1.2.9,1.8,1.4.3.2.7,0,1,0,1,.8,1.9,1.5,2.9,2.3s1,.3,1.3-.2c.6-.8,1.2-1.6,1.8-2.4.2-.3.1-.8-.1-1-1-.8-2-1.7-3.1-2.5h0c.2-.3.1-.8-.1-1-.6-.5-1.3-1-1.9-1.5.5-.8.9-1.7,1.3-2.6,1.3-3,2-6.2,2.1-9.4,0-3-.4-6-1.7-8.7-2.4-4.7-7.3-7.5-12.5-8h-.3c-.5-.9-1.2-1.7-1.9-2.5-2.5-2.7-5.7-4.6-8.9-6.3-3.1-1.6-6.3-2.8-9.7-3.7-6.3-1.7-12.8-2.2-19.3-1.7-4.9.3-9.8,1.1-14.4,2.6-.4-3.7-.8-7.3-1.2-11-.6-5.5-1.2-11-1.6-16.5,0-.9,0-1.8-.2-2.7,0-.4-.2-.7-.6-.8-6.9-2.4-13.8-4.4-20.8-6.4-6.4-1.8-12.8-3.6-19.2-5.3-1.3-.3-2.6-.7-3.9-1-.4,0-.8,0-1.2.2-.7.3-1.5.6-2.2.9-5.7,2.5-11.4,5.1-17.1,7.7-6.7,3-13.5,6.1-20.3,8.8-.7.3-1.4.6-2,.8h0c-.3,0-.6.3-.6.8.2,3.5.4,6.9.7,10.4.4,7,.9,14,1.2,20.9.1,1.9.2,3.9.3,5.8-1.6.5-3.3,1-4.9,1.6-.6.2-1.2.4-1.8.6-.3,0-.4.2-.5.4,0,0,0,.2-.1.4-.5,6.5-.3,13.2,0,19.7.3,6.6.7,13.2,1.3,19.8.2,2.1.4,4.1.6,6.2,0,.5,0,1.5.3,2.1,0,.3.3.5.7.6h.3c3.4,0,6.8.2,10.2.4-1.5.5-3,.9-4.4,1.4-.7.2-1.3.4-2,.6h0c-.3,0-.6.3-.5.8.7,12.4,1.6,24.8,2.8,37.1.4,3.6.7,7.1,1.1,10.7,0,.4.3.9.8.8,9.2-.6,18.3-1,27.5-1.5,4-.2,7.9-.4,11.9-.6,1.7,0,3.3,0,5-.2,1.1-.1,2.1-.4,3.2-.6,2.6-.5,5.2-1.1,7.8-1.6,3.8-.8,7.6-1.6,11.3-2.3,0,.4.2.8.5,1.1.7.8,2,1,3,1.1,1.1.1,2.2.1,3.3,0,.6,1.1,1.7,1.7,2.9,2,0,.2,0,.4-.2.6-1.3,4-2.6,8.1-3.3,12.3h1.7c.6-3.3,1.6-6.6,2.6-9.8.3-1,.6-1.9.9-2.9.6,0,1.3,0,1.8-.2.9-.2,1.7-.5,2.5-1,.7.6,1.8.9,2.7,1,1.4.2,2.7,0,3.9-.8,2.8-2.1,2.9-5.7,1.9-8.8,4.5-2.7,9.1-5.3,13.6-8,2.2-1.3,4.3-2.6,6.4-4,.8-.5,1.6-1.1,2.4-1.6.3.3.5.6.8.8.6.4,1.2,0,1.7-.3.7-.5,1.4-1,2.1-1.6.2-.2.4-.3.6-.5,1,5.9,2.1,11.9,3.3,17.8,1.3,6.5,2.7,13,4.3,19.4,0,.1,0,.3.1.4h1.8c-1.6-6-2.9-12.2-4.2-18.3-1.3-6.4-2.5-12.8-3.6-19.2l-.3.2ZM148.7,129.3c-.2.1-.5.3-.7.4-6.1,3.1-13.1,4.5-19.9,4.5s-8.5-.4-12.6-1.7c0-.9-.2-1.8-.3-2.7,0-.5,0-1.1-.2-1.6,1.6.4,3.2.7,4.7.9,6.5.7,13.7-.2,19.4-3.4,2.6-1.4,4.9-3.4,6-6.2.4-1-1.3-1.5-1.7-.5-.3.9-1,1.8-1.7,2.6-.8.9-1.8,1.6-2.8,2.2-2.5,1.5-5.3,2.4-8.2,3-5.1,1.1-10.8,1.1-16-.4-.3-2.5-.5-5-.8-7.6,0-.4-.3-.8-.8-.8h-10.3v-.7h.6c2.5,0,5.1-.6,7.2-1.9.8,2.2,3.5,3.1,5.8,2.8.5,0,.9-.4.9-.9s-.4-.9-.9-.9h0c-1.1,0-2.3,0-3.2-.5-.6-.4-1-1.1-1-1.7h0c0-.8.3-1.4.9-1.9.2-.2.4-.3.6-.4.7-.4,1.6-.5,2.5-.5h.2c.3,0,.6-.3.7-.6v-4.3h.7c0,2.7.6,5.5,2.4,7.5,2,2.3,5.1,3.1,8,3.2,2.8,0,5.9-.5,8.4-2,2.3-1.4,3.7-3.8,4.1-6.4.2-1,.3-2,.3-3.1,2.7,0,5.4-.3,8-.4h1.8c2.5-.2,5-.3,7.6-.5h.4c.6.8,1.2,1.7,2.1,2.2.5.2.9.3,1.4.2h.2c.2,0,.4-.3.5-.6,0-.3.2-.6.3-.9.4-1,1-2,1.8-2.6.1,0,.2-.2.4-.2,0,0,.2,0,.3-.2h.2c.2,0,.4,0,.6-.2h.6c1.1,0,2.2.9,2.7,2v.2c.2.4.2.8.3,1.3v1.1h0c0,.8,0,1.6-.3,2.4-.3,1.1-1,2-2.1,2.5-.7.3-1.6.4-2.4.3-.6,0-1.3-.2-1.9-.4h-.4c-.2,0-.3,0-.4.2-.1,0-.2.2-.2.4-1,7.1-5.7,12.6-11.7,16.2-.3.2-.6.3-.9.5-.3.2-.5.3-.8.5l-.4-.4ZM131.5,137.7h-.6c-.4,0-.7.2-.9.5-.5.8-.9,1.7-1.3,2.6-.7,1.4-1.4,2.9-2,4.3,0,.1,0,.3-.2.4-1.3-2.4-2.3-5-3.8-7.4h0s0-.1-.2-.2h0c0,0-.3-.2-.5-.2h-1.6c0-.8,0-1.6,0-2.5.5,0,.9.1,1.4.2,5.3.7,10.8.5,16.1-.6v2.1c-.3.1-.6.3-.8.5-.9,0-1.9,0-2.8.1-.9,0-1.8,0-2.7.2h-.2ZM134.1,139.3c-.6.4-1.3.9-1.9,1.3,0-.4,0-.8-.1-1.1h2v-.2ZM130.8,144.1c-.6.5-1.1.9-1.7,1.4-.5.4-1,.8-1.5,1.2.9-2,1.9-4,2.8-5.9.1,1.1.2,2.2.3,3.2h0ZM116.1,137.8h-.2c0-1.2-.2-2.3-.3-3.5,1,.3,2,.5,2.9.7,0,.9,0,1.8,0,2.7h-2.3ZM116.4,139.1h0s0,0,0,0ZM116.2,140.1c0-.2,0-.4,0-.6h4.1c-.5,3.2-.6,6.4-1,9.7,0,.6.6,1,1.1.8,1.7-.5,3.3-.9,5-1.4-2.7,2.3-5.4,4.6-8.1,6.9-.4-5.1-.8-10.2-1.3-15.3h.1ZM121.4,148c.2-2.4.4-4.8.7-7.2,1.1,2,2,4.2,3.1,6.1-1.3.4-2.5.7-3.8,1.1h0ZM114,75c0-.8-.2-1.7-.3-2.5,1,.2,2,.6,2.9,1.2.3.2.6.4.8.7,0,0,0,.2.2.2l-.2.2-.5.5-.4.4-.4.4c-.6-.5-1.3-.9-2.1-1.1ZM115.7,76.6h0ZM117.1,82.4h0l.4.4c0,0-.2.3-.4.4h0l-.2.2c-.2.2-.4.4-.7.5-.6.5-1.3.8-2.1,1-2.1.5-4.7-.4-6.2-2-.3-.4-.6-.8-.8-1.2,0-.3-.2-.6-.3-.8v-.3c.9-.2,1.9-.4,2.8-.5h0v.3c0,.3.3.5.5.7.4.5.9.8,1.5,1.1.3,0,.7.2,1.1.3h.8c.6,0,1.1-.2,1.6-.5.3-.2.6-.4.8-.6l.3.3.7.7h.2ZM101.9,79.9c-1.7.3-3.5.6-5.2,1-.7-.3-1.4-.5-2.1-.8-3.2-1.2-6.3-2.4-9.5-3.6-5.8-2.2-11.6-4.3-17.4-6.3-.9-.3-1.8-.6-2.6-.9,1-.4,1.9-.7,2.9-1.1.6-.2,1.1-.4,1.7-.6h.3c.7.2,1.5.4,2.2.6,1.7.5,3.4.9,5.1,1.4,4.9,1.3,9.7,2.7,14.6,4,4.8,1.3,9.6,2.7,14.5,4,1.2.3,2.4.6,3.6,1-2.6.5-5.3,1-7.9,1.5l-.2-.2ZM74.6,74.4c6.3,2.3,12.5,4.6,18.8,7,1.2.4,2.3.9,3.5,1.3.4,0,.8.3,1.2.5,0,0,.3,0,.4.2h0v1.2c.5,4.1.8,8.3,1.1,12.4.4,5.4.8,10.7,1.2,16.1,0,1.6.2,3.2.3,4.8-2.9,0-5.8,0-8.8,0-6.6,0-13.3-.2-19.9-.2h-3.9c-.8,0-1.6-.3-2.4-.4-1.6-.3-3.1-.5-4.7-.8-.7-12.5-1.4-25-2.1-37.4-.2-3.3-.4-6.7-.5-10h0c5.2,1.7,10.4,3.4,15.5,5.3h.3ZM101.1,92.3c6.7-.6,13.4-.8,20.1-.7,8.4.2,16.8.9,24.9,2.7.5,0,.9.2,1.4.3h.4c.3,0,.7,0,.9.3h0s.1.2.1.4v.2h-.1c-.2.2-.5.2-.9,0h-.5c-2.7,0-5.4-.3-8.1-.4-1.3,0-2.7,0-4,0-4.2,0-8.4-.2-12.6-.3h-5.4c-5.4,0-10.7,0-16.1.3,0-1-.2-1.9-.2-2.9h.1ZM121.3,96.6c5.9,0,11.8.2,17.7.4,2.9,0,5.8.2,8.7.4h1.3c.3,0,.5,0,.7-.2h1.1c2.6.2,5.2.4,7.8.7,1.2.9,2.4,1.9,3.5,2.8.4.3.8.7,1.3,1-.2.2-.4.4-.6.6-.7.8-1.2,1.8-1.5,2.8-.4-.2-.7-.6-1-1-.7-.9-1.2-1.9-1.8-2.8s-1.4-1.9-2.4-2.4-2-.5-3-.2-2,.8-3,1h-.9c-.3,0-.6,0-.9-.2,0,0-.2,0-.3,0-1.3-.6-2.3-1.5-3.9-1.7-1,0-2,0-2.9.4-1.3.4-2.6,1.3-3.9,1.4-1.3,0-2.6-.6-3.7-1-1.2-.5-2.5-.9-3.9-.6-1.3.3-2.4,1.1-3.7,1.4-1.1.2-2.2-.3-3.1-.9-1-.6-2-1.2-3.2-1.4-1.3-.2-2.4.3-3.5,1.1-.9.7-1.8,1.1-3,.9s-2.3-.7-3.4-1.1c-2-.7-4.1-1.1-5.8.3-.6.5-1.3,1-2.1,1.2h-.3c0-.9,0-1.9-.2-2.8,6.6-.3,13.2-.3,19.7-.3l.2.3ZM104.4,100.3c.6-.5,1.1-1,1.8-1.1,1.1-.2,2.2.2,3.2.6,2.3.9,4.7,1.9,7,.5,1-.6,1.9-1.5,3.2-1.3,1.1.2,2.1,1,3.1,1.5,1.1.6,2.3,1,3.6.7,1.4-.2,2.5-1.2,3.9-1.5,1.3-.2,2.5.4,3.7.9,1.3.6,2.6,1,4,.7,2.2-.4,4.3-2.3,6.6-1.7,1.3.3,2.3,1.4,3.6,1.8h2.1c.2,0,.4,0,.6,0,1.1-.3,2.2-1,3.3-1.1,1.3-.2,2.1.7,2.9,1.8-2.2.2-4.4.3-6.7.4h-1.8c-2.7.2-5.4.3-8,.4-.2-.4-.7-.8-1.2-.8-5,0-10.1,0-15.1,0-1.7,0-3.4,0-5.1,0h-.6c-.3.2-.6.4-.7.8v.3h-.9v-.2c0-1.1-1.7-1.1-1.7,0v.2h-.6v-.3c0-.4-.3-.6-.7-.8h-.5c-3.8,0-7.6-.2-11.4-.2v-.9c.9-.2,1.8-.6,2.5-1.1v.3ZM138.1,107.1c0,.8-.3,1.9-.6,2.8s-.9,1.8-1.7,2.4c-1.7,1.4-4.2,2-6.4,2.1-2.3,0-4.8-.2-6.7-1.6-1.2-.9-1.9-2.2-2.2-3.6-.3-1.3-.4-2.8-.3-4.2,5.8,0,11.6-.2,17.3-.2h.6v2.2h0ZM115.3,109.7c-.3,0-.6,0-.9.2.3-1.1.4-2.3.4-3.5h.4v3.3h0ZM108.2,105h4c0,1.2,0,2.4-.2,3.6-.2,1.4-.7,2.6-1.7,3.6-1.6,1.7-4.1,2.3-6.4,2.3h-1.1c-.2-3.2-.4-6.3-.6-9.5v-.2h6.1v.2ZM169.1,114.4c-1.3,1.8-2.4,3.7-2.8,5.9-.2,1.2-.3,2.4-.2,3.6.1,1.5,1,2.7,2.2,3.5.6.4,1.3.7,2.1.9v1.2c-.1.9-.5,1.7-1.3,2-.4.2-.9.2-1.4.2s-.8-.2-1.3-.4c-1-.5-2.1-.6-3.1,0-.6.4-1,1-1.6,1.4-.8.4-2.1.5-2.9,0-.6-.4-1-1-1.5-1.4-.8-.7-1.8-.8-2.7-.5-.6.2-1.1.5-1.7.7-.6.2-1.2,0-1.7-.2-.4-.2-.7-.5-.9-.8,5.3-2.9,9.9-7.2,12.2-12.8.6-1.3.9-2.7,1.2-4.1.4,0,.9.2,1.3.2,1,0,2,0,2.9-.3,1.6-.6,2.7-1.8,3.2-3.4.2-.6.3-1.2.4-1.8.6.5,1.2.9,1.7,1.4-1.3,1.6-2.7,3.3-4,5v-.3ZM178.3,107.7c-.6.8-1.1,1.5-1.7,2.3-.3-.3-.7-.5-1-.8s-.4-.3-.7-.5c-.2-.2-.5-.4-.7-.6-.9-.7-1.8-1.4-2.8-2.1,0-.9-.2-1.7-.6-2.5-.7-1.5-2-2.5-3.6-2.8h-1.8c-.2,0-.3,0-.5.2,0,0-.2,0-.2-.2-.3-.3-.6-.5-1-.8-.5-.4-1-.8-1.6-1.2-.2,0-.3-.3-.5-.4-.1,0-.3-.2-.4-.3-.3-.2-.5-.4-.8-.6-.1,0-.2-.2-.4-.3-.3-.2-.6-.4-.8-.7-.8-.6-1.5-1.2-2.3-1.8-.4-.3-.9-.7-1.3-1l-1.3-1.1c-1.5-1.2-2.9-2.3-4.3-3.5-.2-.2-.5-.4-.7-.6s-.5-.4-.7-.6c-1.2-.9-2.3-1.9-3.5-2.8-.8-.6-1.6-1.3-2.4-1.9.6-.7,1.2-1.5,1.8-2.3,1.8,1.5,3.7,2.9,5.5,4.4h.1c.2.2.4.3.6.5.2.2.4.3.6.5h0c1.4,1.1,2.8,2.2,4.2,3.4,1.4,1.1,2.8,2.3,4.3,3.4.4.3.7.6,1.1.9.3.3.7.5,1,.8.3.2.6.5.9.7.6.5,1.1.9,1.7,1.4.4.3.8.6,1.2,1,.2,0,.4.3.5.4.2.2.4.3.6.5h.1c.2.2.5.4.7.6,2.2,1.8,4.5,3.6,6.7,5.4.5.4.9.7,1.4,1.1.2.2.5.4.7.6s.4.4.7.5c.3.3.7.5,1,.8h.2ZM178.1,85.2c1.4,2.5,1.8,5.4,1.7,8.2,0,3.1-.7,6.2-2.1,9-.3.6-.6,1.3-1,1.9-2.7-2.1-5.3-4.3-8-6.4.1,0,.3-.3.4-.4.6-.9.5-1.9.6-2.9v-3.7c0-2.9,0-5.9-.6-8.8-.3-1.2-.7-2.4-1.2-3.5,4.1.6,8,2.9,10,6.6h.2ZM123.6,64.7c3.5-.4,7-.6,10.5-.4,2.5,0,5,.3,7.5.8,3.6.6,7.1,1.6,10.4,2.9,2.7,1.1,5.4,2.5,7.8,4.1,1.9,1.3,3.7,2.8,5.1,4.7.2.3.4.6.6.8.2.3.4.6.5.9.1.2.2.4.3.6.5,1,.8,2.1,1.1,3.2.3,1.5.5,3,.6,4.6h0v9.1c0,.3,0,.5-.3.7h-.2q0,0-.1,0c-.2,0-.4-.3-.5-.4-4.8-3.8-9.6-7.6-14.4-11.5-.2-.2-.5-.4-.7-.5-.2-.2-.4-.4-.7-.5-.6-.5-1.2-1-1.8-1.5-1.4-1.2-2.9-2.3-4.3-3.5-.2-.2-.5-.2-.7-.2h0c-1.5-1.2-3-2.3-4.5-3.4-1.3-1-2.8-2.1-4.4-2.6-1.8-.5-3.6,1.2-2.9,3.1.5,1.3,1.9,2.3,2.9,3.2,1.7,1.5,3.5,2.9,5.3,4.4,0,0,.1.3.2.4,2.4,1.9,4.8,3.9,7.2,5.8.3.2.5.4.8.6.2.2.4.3.6.5,0,0,.1,0,.2.2.4.3.7.6,1.1.9.5.4,1,.8,1.4,1.1.5.4,1,.8,1.4,1.2.9.7,1.7,1.4,2.6,2.1h-.6c-1.6,0-3.2-.3-4.8-.4,0-.7-.2-1.4-.7-1.9-.1,0-.2-.2-.4-.2-.3,0-.6-.3-.9-.3s-.6,0-.9-.2c-.3,0-.7,0-1-.2-1.1-.2-2.1-.4-3.2-.6-2.2-.4-4.4-.7-6.6-1-4.6-.6-9.1-.9-13.7-1.1-7.5-.3-15,0-22.5.6v-1.1c-.2-1.7-.3-3.4-.5-5.1,0-.7,0-2-.8-2.4h0c.8,0,1.6-.3,2.4-.4,1.1-.2,2.3-.4,3.4-.6h0c0,.3.2.6.3.8,0,.4.3.8.6,1.2,1.5,2.4,4.5,3.8,7.3,3.7,1.2,0,2.3-.4,3.3-1,0,0,.3.2.5.2h4c.4,0,.8-.4.8-.8v-.2c0,0,0,.3,0,.4,0,.3.4.6.8.6h2.3c.2,0,.4,0,.5-.2,0,0,.2-.2.3-.4,0,.3.4.6.8.6h3.9c.2,0,.4,0,.5-.2.2-.2.3-.4.3-.6-.3-3.9-.5-7.8-.8-11.7,0-.6,0-1.1-.1-1.7,0-.4-.4-.8-.8-.8h-4.1c-.4,0-.7.3-.8.6-.4,1-.8,2.1-1.2,3.1-.5-1.1-1-2.2-1.5-3.3,0-.3-.4-.4-.7-.4h-4c-.4,0-.8.4-.8.8v.2c-.9-.5-2-.9-3.1-1,0-1.3-.3-2.7-.4-4,3.4-1.1,7-1.8,10.5-2.2l-.3-.3ZM119.4,74.3c-.3-.5-.7-.9-1.2-1.3v-.6h2.6c.7,1.5,1.4,3.1,2,4.6.3.7,1.3.4,1.5-.2.6-1.5,1.2-3,1.7-4.4h2.8c.2,3.6.5,7.3.7,10.9v.9h-2.3c0-1.4,0-2.9-.2-4.3,0-.9-1.4-1.1-1.6-.2-.3,1.3-.7,2.6-1,3.9,0,.2,0,.4-.2.6h-1.1c0-.4-.2-.8-.3-1.1-.4-1.1-.7-2.2-1.1-3.3-.3-.9-1.6-.7-1.6.2v4.2h-1.8c.2-.2.3-.4.5-.5,0-.2.3-.3.4-.5v-.2c0-.3,0-.6-.2-.8l-.2-.2-1-1c0-1.5,0-3,0-4.5l1.1-1.1h0c.2-.3.3-.7,0-1h.4ZM114,79.2c.3-.2.4-.5.4-.9s0-1,0-1.4h0c.5,0,.8.5,1.2.9.4.4.7.4,1.1.2v1.5c-.4-.3-1-.2-1.2.2-.4.6-.9,1-1.5,1.1s-1.2,0-1.7-.3c-.3-.2-.6-.4-.7-.7.5,0,1-.2,1.4-.3.4,0,.8,0,1.1-.3h0ZM67.6,23.7c6,1.5,11.9,3.2,17.8,4.9,7.1,2,14.3,4.1,21.3,6.5.5.2,1,.4,1.6.5.2,4.7.8,9.3,1.3,14,.6,6,1.3,12,2,18,.4,3.3.7,6.5,1.1,9.8-1.3-.3-2.7-.7-4-1.1-4.6-1.2-9.1-2.5-13.7-3.7-5-1.4-10-2.7-14.9-4.1-3.1-.9-6.2-1.7-9.3-2.5h0c-1.5-11.1-2.4-22.3-3.7-33.5-.4-3.1-.8-6.2-1.2-9.2.6.1,1.3.3,1.9.5h-.2ZM23.9,44.4c0-1-.1-2.1-.2-3.1,6.4-2.6,12.8-5.4,19.1-8.2,6.1-2.7,12.2-5.5,18.4-8.2,1.1-.5,2-.8,2.9-1.2,1.5,10.9,2.5,21.9,3.7,32.8.4,3.2.8,6.4,1.2,9.6-1.5.5-2.9,1.1-4.4,1.6-.7.3-1.4.5-2.1.8-.9-.3-1.8-.6-2.7-.9-.4,0-.8-.3-1.2-.3s-.7,0-1.1.2c-3.6,1-7.1,2.1-10.7,3.2-5.2,1.6-10.5,3.3-15.7,5-1.8.6-3.5,1.1-5.3,1.7-.2-4.9-.5-9.9-.8-14.8-.4-6-.7-12.1-1.1-18.1h0ZM20.6,127.4h-.2v-.4c0-.3,0-.7-.1-1-.6-5.2-1-10.5-1.3-15.7-.5-7-.8-13.9-.8-20.9s0-5.3.2-8c2.1-.7,4.1-1.3,6.2-2,4.9-1.6,9.8-3.1,14.6-4.7,4.7-1.5,9.4-3,14.2-4.4,1.4-.4,2.7-.8,4.1-1.2.7,12.3,1.3,24.5,2,36.8.2,3.4.4,6.9.6,10.3h-.4c-1.1.2-2.1.5-3.2.8-1.9.5-3.9,1.1-5.8,1.6-5.1,1.5-10.3,3-15.4,4.5-4.3,1.3-8.6,2.5-12.9,3.7-.6.2-1.2.3-1.8.5h0ZM25.8,127.7c.7-.2,1.4-.4,2.1-.6,5.1-1.5,10.2-3,15.3-4.5,4.5-1.3,9.1-2.7,13.6-3.9,1-.3,2.1-.6,3.2-.8h0c.5,0,.9,0,1.3.2,1,.2,2.1.3,3.1.5-.2,0-.3,0-.5,0-6,1.9-12.1,3.8-18.1,5.7-3.9,1.3-7.8,2.5-11.8,3.8-2.8-.2-5.7-.5-8.5-.6h.2ZM69.1,177.3c-3.5.2-7.1.3-10.6.5-9.3.5-18.6.9-27.9,1.5-.7,0-1.4,0-2.1.1-1.3-12-2.4-24.1-3.1-36.1-.2-3.4-.4-6.8-.6-10.3,6.3-2,12.7-4,19-6,6.4-2,12.7-4.1,19.1-6.1,1.4-.4,2.7-.9,4.1-1.3.7,14.9,2.3,29.8,3.4,44.7.3,4.3.6,8.6.8,12.9-.7,0-1.5,0-2.2.1h0ZM94.8,172.5c-3.2.7-6.4,1.3-9.6,2-4.1.8-8.2,1.6-12.2,2.5-.7-14.9-2.3-29.8-3.4-44.7-.3-4.3-.6-8.6-.8-12.9h2.4c6.3,0,12.5,0,18.8,0,7.1,0,14.2.2,21.3.3h1.3c1.3,12.4,2.4,24.7,3.4,37.1-1.6,1.4-3.2,2.7-4.9,4.1-2.2-2.1-5.7-4.2-8.5-2.4-3,1.9-.6,5.2,1.3,7.3-1.2.7-2.4,1.5-3.5,2.3-.8.5-1.5,1-2.3,1.4-.7.5-1.5.9-2.1,1.5-.5.5-.9,1-1.1,1.5h-.1ZM138.1,155.2c-2,1.3-4,2.6-6,3.8-4.9,2.9-10,5.7-14.9,8.7-.3.2-.5.6-.4,1,.9,2.4,1.4,5.4-.8,7.3-.7.7-1.6.8-2.5.8s-1.4-.1-1.9-.5c.8-.9,1.5-1.9,1.8-3.1.3-1.1-1.4-1.5-1.7-.5-.5,1.9-2.1,3.4-4,3.9-1.1.3-2.2.3-3.3,0-.5-.1-1-.4-1.3-.7,1.8-.6,3.5-1.7,4.8-3.1.8-.8-.5-2-1.2-1.2-1.3,1.4-2.9,2.3-4.7,2.8-.9.2-1.9.4-2.8.3-.8,0-1.9,0-2.6-.5-.4-.2-.4-.6-.3-1.1.2-.7.9-1.3,1.5-1.6,1.2-.8,2.4-1.5,3.6-2.3,1.4-.9,2.8-1.8,4.2-2.7.5-.3.6-.9.2-1.3-.8-.8-1.6-1.7-2.2-2.7-.3-.5-.6-1-.7-1.6,0-.7.3-1,.9-1.3,1.1-.6,2.4-.2,3.4.4,1.2.6,2.3,1.5,3.2,2.5.3.4.9.3,1.2,0,5.3-4.4,10.6-8.9,15.8-13.4,1.7-1.5,3.5-3,5.2-4.5,1,1.2,2,2.4,2.9,3.7,1.1,1.4,2.2,2.8,3.2,4.1.4.5.7,1,1.1,1.4-.6.4-1.2.8-1.8,1.2v.2ZM145,152.7c-.6.5-1.3,1-1.9,1.4-.1,0-.3.2-.4.3-2.1-2.2-3.8-4.7-5.6-7-1.4-1.7-2.7-3.4-4.1-5.1,1.8-1.2,3.6-2.4,5.4-3.5,1.9-1.1,4.1-2.1,6.4-1.8,2.1.3,3.9,2,4.8,3.9,1,2,.6,4.6-.2,6.6-.9,2.2-2.5,3.7-4.4,5.1h0Z"></path>
      </g>
    </g>
  </g>
</svg><style>@media (prefers-color-scheme: light) { :root { filter: none; } }
@media (prefers-color-scheme: dark) { :root { filter: none; } }
</style></svg>