<?xml version="1.0" standalone="no"?>
<!DOCTYPE svg PUBLIC "-//W3C//DTD SVG 20010904//EN"
 "http://www.w3.org/TR/2001/REC-SVG-20010904/DTD/svg10.dtd">
<svg version="1.0" xmlns="http://www.w3.org/2000/svg"
 width="1997.000000pt" height="1997.000000pt" viewBox="0 0 1997.000000 1997.000000"
 preserveAspectRatio="xMidYMid meet">
<metadata>
Created by potrace 1.14, written by Peter Selinger 2001-2017
</metadata>
<g transform="translate(0.000000,1997.000000) scale(0.100000,-0.100000)"
fill="#000000" stroke="none">
<path d="M8769 17016 c-2 -2 -78 -7 -169 -10 -91 -4 -183 -9 -205 -11 -22 -2
-78 -6 -125 -10 -120 -8 -194 -14 -365 -31 -154 -15 -164 -16 -300 -34 -44 -5
-102 -12 -130 -15 -27 -3 -60 -8 -72 -10 -12 -3 -41 -7 -65 -10 -446 -55
-1207 -223 -1658 -367 -761 -242 -1196 -455 -1829 -895 -51 -35 -370 -290
-386 -308 -5 -6 -48 -45 -95 -86 -218 -191 -369 -343 -569 -574 -115 -132
-290 -378 -401 -563 -111 -184 -312 -591 -400 -812 -78 -197 -192 -553 -216
-675 -2 -11 -8 -40 -14 -65 -12 -55 -15 -70 -44 -240 -13 -74 -27 -164 -31
-200 -4 -36 -9 -74 -11 -85 -10 -52 -18 -238 -19 -407 l0 -188 -50 -10 c-27
-6 -115 -24 -195 -41 -80 -17 -156 -33 -170 -35 -44 -9 -303 -75 -355 -90
-121 -37 -333 -107 -365 -121 -19 -8 -44 -19 -55 -23 -151 -59 -304 -150 -369
-220 -174 -185 -122 -463 106 -578 82 -41 144 -51 277 -46 68 2 126 6 130 8 3
2 56 7 116 11 61 4 126 8 145 10 57 5 288 21 425 30 44 3 109 8 145 10 36 3
106 7 155 10 50 3 125 8 168 11 l78 5 17 -43 c35 -93 135 -277 192 -353 l60
-80 1 -155 c0 -85 2 -194 5 -241 l5 -86 -173 -1 c-168 -1 -174 -2 -228 -29
-61 -32 -111 -94 -132 -166 -20 -72 -16 -512 7 -697 7 -54 25 -183 31 -225 24
-164 86 -408 139 -545 139 -366 335 -625 612 -806 66 -43 134 -86 151 -95 24
-14 34 -31 57 -100 129 -392 374 -913 597 -1269 33 -52 65 -104 71 -114 7 -11
47 -70 89 -130 287 -412 597 -746 969 -1049 122 -98 476 -347 495 -347 2 0 21
-11 42 -24 76 -49 477 -256 497 -256 2 0 30 -12 62 -26 197 -90 739 -267 953
-310 14 -3 50 -11 80 -19 45 -11 214 -47 280 -60 24 -4 93 -17 118 -21 12 -2
34 -6 50 -9 72 -13 201 -34 237 -39 22 -3 74 -10 115 -16 93 -13 131 -18 195
-25 28 -2 68 -7 90 -9 59 -7 163 -17 220 -21 28 -2 91 -6 140 -10 50 -3 124
-8 165 -10 88 -5 814 -5 880 -1 25 2 95 6 155 10 61 4 130 8 155 11 25 2 74 7
110 10 36 3 81 8 100 10 19 2 62 7 95 10 33 3 74 8 90 10 17 2 66 9 110 15
507 68 1044 188 1515 339 237 75 598 208 728 266 17 8 47 21 65 29 91 39 172
76 277 127 l115 56 40 -51 c138 -174 344 -299 530 -322 40 -5 191 -5 215 0 89
19 137 35 244 81 211 91 281 105 356 73 19 -8 95 -75 168 -147 185 -183 280
-241 458 -275 78 -15 290 -16 359 -2 155 32 220 58 330 131 44 30 118 90 165
135 108 102 144 122 225 121 64 0 85 -7 228 -75 130 -62 205 -79 356 -78 218
1 424 78 565 211 160 152 244 364 251 636 2 110 0 147 -19 272 -16 99 -77 173
-144 173 -11 0 -59 12 -108 26 -310 89 -477 236 -541 475 -19 71 -25 326 -10
434 64 461 242 845 631 1359 69 91 137 178 150 193 13 16 61 73 107 128 189
227 381 455 388 459 3 2 45 -26 93 -62 48 -37 129 -100 182 -140 113 -88 146
-97 218 -59 l47 24 288 -225 c158 -123 304 -231 323 -239 47 -21 112 -12 155
21 33 26 372 458 408 520 19 35 22 74 6 129 -13 47 -12 46 -169 172 -41 32
-81 65 -88 72 -7 7 -16 13 -20 13 -4 0 -23 15 -42 33 -19 18 -87 73 -150 122
-142 110 -143 111 -136 132 26 84 5 156 -58 206 -22 17 -48 37 -56 44 -20 16
-100 81 -125 101 -11 10 -51 41 -88 71 -37 30 -67 56 -67 58 0 2 20 38 44 81
141 250 263 525 355 800 44 132 116 386 128 451 2 14 13 67 23 116 10 50 21
106 24 125 3 19 8 44 10 56 2 12 7 45 11 74 4 29 8 61 10 71 2 10 7 49 10 86
4 37 9 82 11 98 18 144 24 601 10 785 -5 58 -9 107 -11 110 -2 3 -6 39 -10 80
-4 41 -9 84 -11 95 -2 11 -9 47 -15 80 -18 104 -66 296 -99 400 -178 554 -479
985 -946 1353 -16 13 -67 49 -114 80 -47 31 -86 60 -88 65 -2 4 -7 7 -12 7 -4
0 -37 18 -72 39 -363 220 -862 379 -1308 416 -53 5 -79 12 -88 23 -7 9 -47 67
-89 127 -43 61 -82 115 -87 121 -6 7 -45 53 -86 103 -106 128 -373 389 -495
482 -16 13 -32 26 -35 29 -11 14 -260 200 -350 262 -142 98 -346 224 -520 322
-85 48 -162 91 -170 96 -47 29 -522 264 -615 304 -60 27 -132 59 -160 71 -302
134 -947 357 -1245 430 -8 3 -69 18 -135 35 -181 46 -501 118 -650 145 -238
43 -532 88 -725 111 -19 2 -53 6 -75 8 -22 3 -67 8 -100 11 -33 3 -73 8 -90
10 -16 2 -66 6 -110 10 -44 3 -98 8 -120 10 -22 3 -85 7 -140 10 -55 3 -134 8
-175 11 -85 7 -1035 15 -1041 10z"/>
</g>
</svg>
