<svg width="25" height="25" viewBox="0 0 25 25" fill="none" xmlns="http://www.w3.org/2000/svg">
<path d="M17.7391 13.8806C18.6759 13.8806 19.4353 13.1212 19.4353 12.1844C19.4353 11.2477 18.6759 10.4883 17.7391 10.4883C16.8024 10.4883 16.043 11.2477 16.043 12.1844C16.043 13.1212 16.8024 13.8806 17.7391 13.8806Z" stroke="#000001" stroke-linecap="round" stroke-linejoin="round"/>
<path d="M12.0848 13.8806C13.0216 13.8806 13.781 13.1212 13.781 12.1844C13.781 11.2477 13.0216 10.4883 12.0848 10.4883C11.1481 10.4883 10.3887 11.2477 10.3887 12.1844C10.3887 13.1212 11.1481 13.8806 12.0848 13.8806Z" stroke="#000001" stroke-linecap="round" stroke-linejoin="round"/>
<path d="M6.43053 13.8806C7.36729 13.8806 8.12668 13.1212 8.12668 12.1844C8.12668 11.2477 7.36729 10.4883 6.43053 10.4883C5.49377 10.4883 4.73438 11.2477 4.73438 12.1844C4.73438 13.1212 5.49377 13.8806 6.43053 13.8806Z" stroke="#000001" stroke-linecap="round" stroke-linejoin="round"/>
</svg>
