<svg width="25" height="25" viewBox="0 0 25 25" fill="none" xmlns="http://www.w3.org/2000/svg">
<path d="M18.5399 14.1989C19.4767 14.1989 20.2361 13.4396 20.2361 12.5028C20.2361 11.566 19.4767 10.8066 18.5399 10.8066C17.6031 10.8066 16.8438 11.566 16.8438 12.5028C16.8438 13.4396 17.6031 14.1989 18.5399 14.1989Z" stroke="#000001" stroke-linecap="round" stroke-linejoin="round"/>
<path d="M12.8856 14.1989C13.8224 14.1989 14.5818 13.4396 14.5818 12.5028C14.5818 11.566 13.8224 10.8066 12.8856 10.8066C11.9488 10.8066 11.1895 11.566 11.1895 12.5028C11.1895 13.4396 11.9488 14.1989 12.8856 14.1989Z" stroke="#000001" stroke-linecap="round" stroke-linejoin="round"/>
<path d="M7.23131 14.1989C8.16807 14.1989 8.92746 13.4396 8.92746 12.5028C8.92746 11.566 8.16807 10.8066 7.23131 10.8066C6.29455 10.8066 5.53516 11.566 5.53516 12.5028C5.53516 13.4396 6.29455 14.1989 7.23131 14.1989Z" stroke="#000001" stroke-linecap="round" stroke-linejoin="round"/>
</svg>
