<svg width="25" height="25" viewBox="0 0 25 25" fill="none" xmlns="http://www.w3.org/2000/svg">
<path d="M8.64491 19.9198C8.32468 19.9198 8.01757 19.7926 7.79114 19.5661C7.5647 19.3397 7.4375 19.0326 7.4375 18.7124L7.96246 12.1504H9.37985L9.90481 18.7124C9.90496 18.8755 9.87208 19.0369 9.80815 19.1869C9.74421 19.3369 9.65055 19.4724 9.53281 19.5853C9.41507 19.6981 9.2757 19.7859 9.1231 19.8434C8.97049 19.9009 8.80783 19.9269 8.64491 19.9198Z" stroke="black" stroke-linecap="round" stroke-linejoin="round"/>
<path d="M8.64557 12.1502C10.1822 12.1502 11.4278 10.599 11.4278 8.68544C11.4278 6.77192 10.1822 5.2207 8.64557 5.2207C7.10895 5.2207 5.86328 6.77192 5.86328 8.68544C5.86328 10.599 7.10895 12.1502 8.64557 12.1502Z" stroke="black" stroke-linecap="round" stroke-linejoin="round"/>
<path d="M15.9418 19.9198C15.6216 19.9198 15.3144 19.7926 15.088 19.5661C14.8616 19.3397 14.7344 19.0326 14.7344 18.7124L15.2593 12.1504H16.6767L17.2017 18.7124C17.2018 18.8755 17.169 19.0369 17.105 19.1869C17.0411 19.3369 16.9474 19.4724 16.8297 19.5853C16.7119 19.6981 16.5726 19.7859 16.42 19.8434C16.2674 19.9009 16.1047 19.9269 15.9418 19.9198Z" stroke="black" stroke-linecap="round" stroke-linejoin="round"/>
<path d="M18.3045 9.78711C18.2907 10.4184 18.0303 11.0192 17.5789 11.4608C17.1275 11.9024 16.5211 12.1496 15.8897 12.1494C15.2631 12.1494 14.6623 11.9005 14.2193 11.4575C13.7762 11.0145 13.5273 10.4136 13.5273 9.78711H18.3045Z" stroke="black" stroke-linecap="round" stroke-linejoin="round"/>
<path d="M13.5273 5.42969V9.78686" stroke="black" stroke-linecap="round" stroke-linejoin="round"/>
<path d="M15.8906 5.42969V9.68186" stroke="black" stroke-linecap="round" stroke-linejoin="round"/>
<path d="M18.3047 5.42969V9.78686" stroke="black" stroke-linecap="round" stroke-linejoin="round"/>
</svg>
