<svg width="25" height="25" viewBox="0 0 25 25" fill="none" xmlns="http://www.w3.org/2000/svg">
<path d="M14.7715 14.4991C16.2291 15.3157 17.5627 16.7007 18.0901 18.3285H18.896C19.2379 17.4777 19.4264 15.7925 19.4264 14.8168C19.4264 12.4618 18.166 10.3671 16.4564 9.03125" stroke="black"/>
<path d="M7.69658 9.03125C5.98692 10.3671 4.72656 12.4618 4.72656 14.8168C4.72656 15.7925 4.91504 17.4777 5.25706 18.3285H6.06293C6.59028 16.7007 7.92394 15.3157 9.3815 14.4991" stroke="black"/>
<path d="M9.73707 15.6553L7.39844 8.06604C9.75561 5.71236 14.3958 5.71236 16.753 8.06604L14.4143 15.6553H9.73707Z" stroke="black"/>
<path d="M16.6973 16.0156L19.0728 12.668" stroke="black"/>
<path d="M5.08008 12.6719L7.46004 16.0127" stroke="black"/>
</svg>
