<svg width="25" height="25" viewBox="0 0 25 25" fill="none" xmlns="http://www.w3.org/2000/svg">
<path d="M10.5125 5.04883C10.6606 5.62133 10.9594 6.14944 11.3847 6.57471C12.0111 7.20126 12.8609 7.55324 13.747 7.55324C14.5671 7.55324 15.3562 7.2517 15.9658 6.71C15.8255 7.08283 15.7516 7.48127 15.7516 7.88733C15.7516 8.77339 16.1036 9.62317 16.7301 10.2497C17.3566 10.8763 18.2064 11.2283 19.0925 11.2283C19.1809 11.2283 19.2689 11.2247 19.3565 11.2178C19.4029 11.5515 19.4266 11.8898 19.4266 12.2305C19.4266 14.1798 18.6522 16.0493 17.2738 17.4277C15.8954 18.8061 14.0259 19.5805 12.0766 19.5805C10.1272 19.5805 8.25772 18.8061 6.87933 17.4277C5.50094 16.0493 4.72656 14.1798 4.72656 12.2305C4.72656 10.2812 5.50094 8.41167 6.87933 7.03328C7.88295 6.02966 9.14693 5.34626 10.5125 5.04883Z" stroke="black"/>
<path d="M8.90234 10.8926H9.23643V11.2267H8.90234V10.8926Z" stroke="black"/>
<path d="M14.748 13.5684H15.0821V13.9025H14.748V13.5684Z" stroke="black"/>
<path d="M10.4043 14.9023H10.7384V15.2364H10.4043V14.9023Z" stroke="black"/>
</svg>
