<svg width="25" height="25" viewBox="0 0 25 25" fill="none" xmlns="http://www.w3.org/2000/svg">
<path d="M9.93408 15.5514C9.93408 15.8275 9.71022 16.0514 9.43408 16.0514C9.15794 16.0514 8.93408 15.8275 8.93408 15.5514C8.93408 15.2753 9.15794 15.0514 9.43408 15.0514C9.71022 15.0514 9.93408 15.2753 9.93408 15.5514Z" fill="black"/>
<path d="M17.0342 16.5514C17.0342 16.8276 16.8103 17.0514 16.5342 17.0514C16.258 17.0514 16.0342 16.8276 16.0342 16.5514C16.0342 16.2753 16.258 16.0514 16.5342 16.0514C16.8103 16.0514 17.0342 16.2753 17.0342 16.5514Z" fill="black"/>
<path d="M10.6348 10.0513C10.6348 10.3275 10.4109 10.5513 10.1348 10.5513C9.85862 10.5513 9.63477 10.3275 9.63477 10.0513C9.63477 9.77517 9.85862 9.55131 10.1348 9.55131C10.4109 9.55131 10.6348 9.77517 10.6348 10.0513Z" fill="black"/>
<path d="M19.8652 12.6499L9.12136 6.36143C9.02021 6.30222 8.89005 6.3423 8.83972 6.44815L5.93367 12.5593M6.03398 19.5514H19.634C19.7444 19.5514 19.834 19.4618 19.834 19.3514V12.7514C19.834 12.6409 19.7444 12.5514 19.634 12.5514H6.03398C5.92353 12.5514 5.83398 12.6409 5.83398 12.7514V19.3514C5.83398 19.4618 5.92353 19.5514 6.03398 19.5514ZM9.93408 15.5514C9.93408 15.8275 9.71022 16.0514 9.43408 16.0514C9.15794 16.0514 8.93408 15.8275 8.93408 15.5514C8.93408 15.2753 9.15794 15.0514 9.43408 15.0514C9.71022 15.0514 9.93408 15.2753 9.93408 15.5514ZM17.0342 16.5514C17.0342 16.8276 16.8103 17.0514 16.5342 17.0514C16.258 17.0514 16.0342 16.8276 16.0342 16.5514C16.0342 16.2753 16.258 16.0514 16.5342 16.0514C16.8103 16.0514 17.0342 16.2753 17.0342 16.5514ZM10.6348 10.0513C10.6348 10.3275 10.4109 10.5513 10.1348 10.5513C9.85862 10.5513 9.63477 10.3275 9.63477 10.0513C9.63477 9.77517 9.85862 9.55131 10.1348 9.55131C10.4109 9.55131 10.6348 9.77517 10.6348 10.0513Z" stroke="black" stroke-width="1.2"/>
</svg>
