<svg width="25" height="25" viewBox="0 0 25 25" fill="none" xmlns="http://www.w3.org/2000/svg">
<path d="M12.2087 20.593C12.2087 20.593 18.4935 20.593 18.4935 13.9913C18.4935 9.13244 15.0606 8.92119 13.2649 9.13244H11.1524C9.35672 8.92119 5.92383 9.13244 5.92383 13.9913C5.92383 20.593 12.2087 20.593 12.2087 20.593Z" stroke="black" stroke-width="1.2" stroke-linecap="round" stroke-linejoin="round"/>
<path d="M12.2083 9.18412C12.2083 9.18412 11.5217 6.64907 10.043 6.22656" stroke="black" stroke-width="1.2" stroke-linecap="round" stroke-linejoin="round"/>
<path d="M15.4844 5.5918C15.4844 6.27814 15.2117 6.93635 14.7264 7.42167C14.2411 7.90699 13.5829 8.17964 12.8965 8.17964C12.8965 7.4933 13.1692 6.83509 13.6545 6.34977C14.1398 5.86445 14.798 5.5918 15.4844 5.5918Z" fill="black"/>
</svg>
