<svg width="25" height="25" viewBox="0 0 25 25" fill="none" xmlns="http://www.w3.org/2000/svg">
<path d="M17.7313 14.0114C18.6681 14.0114 19.4275 13.2521 19.4275 12.3153C19.4275 11.3785 18.6681 10.6191 17.7313 10.6191C16.7946 10.6191 16.0352 11.3785 16.0352 12.3153C16.0352 13.2521 16.7946 14.0114 17.7313 14.0114Z" stroke="#000001" stroke-linecap="round" stroke-linejoin="round"/>
<path d="M12.077 14.0114C13.0138 14.0114 13.7732 13.2521 13.7732 12.3153C13.7732 11.3785 13.0138 10.6191 12.077 10.6191C11.1403 10.6191 10.3809 11.3785 10.3809 12.3153C10.3809 13.2521 11.1403 14.0114 12.077 14.0114Z" stroke="#000001" stroke-linecap="round" stroke-linejoin="round"/>
<path d="M6.42272 14.0114C7.35948 14.0114 8.11887 13.2521 8.11887 12.3153C8.11887 11.3785 7.35948 10.6191 6.42272 10.6191C5.48596 10.6191 4.72656 11.3785 4.72656 12.3153C4.72656 13.2521 5.48596 14.0114 6.42272 14.0114Z" stroke="#000001" stroke-linecap="round" stroke-linejoin="round"/>
</svg>
