<svg width="25" height="25" viewBox="0 0 25 25" fill="none" xmlns="http://www.w3.org/2000/svg">
<path d="M17.7391 14.6384C18.6759 14.6384 19.4353 13.879 19.4353 12.9422C19.4353 12.0055 18.6759 11.2461 17.7391 11.2461C16.8024 11.2461 16.043 12.0055 16.043 12.9422C16.043 13.879 16.8024 14.6384 17.7391 14.6384Z" stroke="#000001" stroke-linecap="round" stroke-linejoin="round"/>
<path d="M12.0848 14.6384C13.0216 14.6384 13.781 13.879 13.781 12.9422C13.781 12.0055 13.0216 11.2461 12.0848 11.2461C11.1481 11.2461 10.3887 12.0055 10.3887 12.9422C10.3887 13.879 11.1481 14.6384 12.0848 14.6384Z" stroke="#000001" stroke-linecap="round" stroke-linejoin="round"/>
<path d="M6.43053 14.6384C7.36729 14.6384 8.12668 13.879 8.12668 12.9422C8.12668 12.0055 7.36729 11.2461 6.43053 11.2461C5.49377 11.2461 4.73438 12.0055 4.73438 12.9422C4.73438 13.879 5.49377 14.6384 6.43053 14.6384Z" stroke="#000001" stroke-linecap="round" stroke-linejoin="round"/>
</svg>
