<?xml version="1.0" encoding="utf-8"?>
<!-- Generator: Adobe Illustrator 27.9.0, SVG Export Plug-In . SVG Version: 6.00 Build 0)  -->
<svg version="1.1" id="레이어_1" xmlns="http://www.w3.org/2000/svg" xmlns:xlink="http://www.w3.org/1999/xlink" x="0px"
	 y="0px" viewBox="0 0 25 25" style="enable-background:new 0 0 25 25;" xml:space="preserve">
<style type="text/css">
	.st0{fill:none;}
	.st1{fill:#FFFFFF;}
</style>
<g>
	<path class="st0" d="M-15.2,27.4c0,1-0.2,1.8-0.5,2.4c-0.4,0.8-0.9,1.3-1.4,1.8c-0.1,0.1-0.1,0.1-0.2,0.2c-0.5,0.5-1,1-1.2,1.8
		c-0.3,0.8-0.4,1.9-0.1,3.6c0,0,0,0,0,0c0.8,0.1,1.7-0.1,2.4-0.8c-0.1-0.6-0.2-1.3-0.2-1.9c0-1.8,0.6-3.4,1.5-4.6
		c0.2-0.3,0.4-0.5,0.6-0.7c-0.1-0.3-0.2-0.5-0.3-0.7C-14.7,28-15,27.7-15.2,27.4z"/>
	<path class="st0" d="M-19.6,33.2c0.4-1.1,1-1.7,1.5-2.3c0.1-0.1,0.1-0.1,0.2-0.2c0.5-0.5,0.9-0.9,1.1-1.4c0.3-0.6,0.4-1.4,0.3-2.7
		c-0.1,0-0.2-0.1-0.3-0.1c-0.9-0.2-1.9,0.2-2.8,1c-0.9,0.8-1.5,2.1-1.8,3.6c-0.3,1.5-0.1,3,0.4,4c0.3,0.5,0.6,1,1,1.3
		C-20,35.1-19.9,34.1-19.6,33.2z"/>
	<polygon class="st1" points="-6.1,25.2 -6.1,25.2 -6.1,25.2 	"/>
	<polygon class="st1" points="-10.6,28.7 -10.6,28.7 -10.6,28.7 	"/>
	<path d="M21.5,6.3c-0.8-1.2-2-2.1-3.4-2.1c-1.4,0-2.7,0.7-3.6,1.9c-0.4,0.5-0.6,1-0.9,1.6c0,0,0,0,0,0c-0.7,0-1.3,0.2-1.9,0.5
		c-0.1-0.2-0.1-0.4-0.2-0.5C10.8,6.3,9.8,5.2,8.4,5C7,4.7,5.6,5.3,4.5,6.4c-1,1-1.8,2.5-2.1,4.3c-0.3,1.7-0.1,3.4,0.5,4.8
		c0.6,1.3,1.7,2.3,3.1,2.6c1.1,0.2,2.1-0.1,3-0.7c0.2,0.5,0.4,1,0.7,1.4c0.8,1.2,2,2.1,3.5,2.1c1.4,0,2.7-0.7,3.6-1.9
		c0.3-0.5,0.6-1,0.9-1.6c1.4,0,2.7-0.7,3.6-1.9c0.9-1.2,1.5-2.8,1.5-4.5C22.8,9.2,22.3,7.5,21.5,6.3z M18.8,4.9
		C18.8,4.9,18.8,4.9,18.8,4.9L18.8,4.9L18.8,4.9z M14.3,8.3L14.3,8.3L14.3,8.3C14.3,8.3,14.3,8.3,14.3,8.3z M5.3,12.9
		C5,13.7,4.9,14.8,5,16.2c-0.4-0.3-0.7-0.8-1-1.3c-0.5-1.1-0.7-2.5-0.4-4s0.9-2.8,1.8-3.6c0.9-0.8,1.8-1.2,2.8-1
		c0.1,0,0.2,0.1,0.3,0.1c0.1,1.3,0,2.2-0.3,2.7C7.8,9.6,7.5,10,7,10.4c-0.1,0.1-0.1,0.1-0.2,0.2C6.2,11.1,5.6,11.8,5.3,12.9z
		 M8.7,16c-0.8,0.6-1.6,0.9-2.4,0.8c0,0,0,0,0,0C6,15.1,6.2,14,6.4,13.2c0.3-0.8,0.7-1.3,1.2-1.8c0.1-0.1,0.1-0.1,0.2-0.2
		c0.5-0.5,1-1,1.4-1.8c0.3-0.6,0.5-1.4,0.5-2.4c0.3,0.3,0.5,0.6,0.7,1c0.1,0.2,0.2,0.5,0.3,0.7c-0.2,0.2-0.4,0.4-0.6,0.7
		c-0.9,1.2-1.4,2.8-1.5,4.6C8.5,14.8,8.6,15.4,8.7,16z M10.8,18.1c-0.7-1-1.1-2.4-1-3.9c0-1.5,0.5-2.9,1.2-3.9
		c0.7-1,1.6-1.5,2.6-1.4c0.1,0,0.2,0,0.3,0c0.1,0.5,0.2,1,0.2,1.4c0,0.5,0,1-0.1,1.3c0,0.1,0,0.1-0.1,0.2c-0.2,0.5-0.5,0.9-0.9,1.4
		c0,0.1-0.1,0.1-0.1,0.2c-0.5,0.6-1,1.4-1.2,2.5c-0.2,0.9-0.1,2,0.2,3.3C11.5,18.9,11.1,18.6,10.8,18.1z M15.8,18.2
		c-0.7,1-1.6,1.5-2.6,1.4c0,0,0,0,0,0c-0.1-0.4-0.2-0.7-0.3-1.1c-0.2-1.1-0.2-1.9-0.1-2.5c0.1-0.6,0.4-1.1,0.6-1.5
		c0.1-0.1,0.2-0.3,0.3-0.4c0-0.1,0.1-0.1,0.1-0.2c0.4-0.5,0.9-1.1,1.1-2c0.2-0.7,0.3-1.5,0.1-2.5c0.3,0.2,0.6,0.5,0.9,0.9
		c0.7,1,1.1,2.4,1,3.9C17,15.9,16.5,17.3,15.8,18.2z M17.5,9.7c0,0.1-0.1,0.1-0.1,0.2c0,0-0.1,0.1-0.1,0.1C17.2,10,17.1,9.8,17,9.7
		c-0.6-0.9-1.3-1.5-2.2-1.9c0.2-0.4,0.4-0.8,0.6-1.1c0.7-1,1.6-1.5,2.6-1.4c0.1,0,0.2,0,0.3,0c0.1,0.6,0.2,1,0.2,1.4
		c0,0.5,0,1-0.1,1.3c0,0.1,0,0.1-0.1,0.1C18.1,8.8,17.8,9.2,17.5,9.7z M20.2,14.7c-0.6,0.8-1.4,1.3-2.2,1.4c0.1-0.6,0.2-1.1,0.2-1.8
		c0-1-0.1-1.9-0.4-2.8c0-0.1-0.1-0.2-0.1-0.3c0.1-0.1,0.1-0.2,0.2-0.3c0.1-0.1,0.2-0.3,0.3-0.4c0-0.1,0.1-0.1,0.1-0.2
		c0.4-0.5,0.9-1.1,1.1-1.9C19.8,7.8,19.8,7,19.7,6C20,6.3,20.3,6.6,20.5,7c0.7,1,1.1,2.4,1,3.9C21.5,12.4,21,13.8,20.2,14.7z"/>
</g>
</svg>
