<svg width="25" height="25" viewBox="0 0 25 25" fill="none" xmlns="http://www.w3.org/2000/svg">
<path d="M10.0781 12.9258L11.7044 14.5521L7.17402 19.0825C7.06724 19.1893 6.94046 19.274 6.80094 19.3318C6.66142 19.3896 6.51189 19.4193 6.36087 19.4193C6.20986 19.4193 6.06033 19.3896 5.92081 19.3318C5.78129 19.274 5.65452 19.1893 5.54773 19.0825C5.33207 18.8668 5.21091 18.5743 5.21091 18.2693C5.21091 17.9643 5.33206 17.6718 5.54772 17.4562L10.0781 12.9258Z" stroke="black" stroke-linecap="round" stroke-linejoin="round"/>
<path d="M11.7659 14.5021C18.118 12.7498 19.4871 10.2856 19.4323 8.53326C19.4323 7.66187 19.0861 6.82617 18.47 6.21C17.8538 5.59383 17.0181 5.24765 16.1467 5.24765C14.3396 5.19289 11.9301 6.5619 10.123 12.9141" stroke="black" stroke-linecap="round" stroke-linejoin="round"/>
<path d="M11.0547 13.6265C13.2999 8.64335 15.2165 6.39817 16.8593 5.85057C17.1324 5.75136 17.4286 5.73483 17.711 5.803C17.9935 5.87118 18.2496 6.02104 18.4473 6.23389C18.6665 6.42725 18.8208 6.68336 18.8894 6.96746C18.958 7.25157 18.9375 7.54991 18.8306 7.82196C18.283 9.46476 16.0379 11.3814 11.0547 13.6265Z" stroke="black" stroke-linecap="round" stroke-linejoin="round"/>
</svg>
