<svg width="25" height="25" viewBox="0 0 25 25" fill="none" xmlns="http://www.w3.org/2000/svg">
<path d="M12.0835 16.41L12.0728 16.308C11.8956 15.0797 10.747 14.2261 9.50731 14.4014L9.49023 14.56C9.47885 14.719 9.48455 14.8788 9.50736 15.0369C9.68454 16.2653 10.8331 17.1189 12.0728 16.9435L12.0835 16.8363M12.0835 16.41L12.075 16.5232C12.0709 16.6152 12.0725 16.7084 12.08 16.8022L12.0835 16.8363M12.0835 16.41L12.0899 16.4666C12.0975 16.5726 12.0975 16.679 12.0899 16.7849L12.0835 16.8363M12.0835 16.41L12.0855 16.3862C12.1927 15.3878 12.9707 14.5502 14.0197 14.4018C14.1792 14.3792 14.3405 14.3736 14.501 14.3849L14.661 14.4018C14.8382 15.6302 13.9769 16.7681 12.7372 16.9435C12.5777 16.9661 12.4164 16.9717 12.2559 16.9604L12.0959 16.9435L12.0835 16.8363M6.88475 10.0336H12.0843H17.2839V16.9663L18.3166 18.5154C18.4493 18.7145 18.3955 18.9835 18.1964 19.1162C18.0852 19.1904 17.9459 19.2091 17.819 19.1668L16.4173 18.6995C13.6358 19.8121 10.5329 19.8121 7.75135 18.6995L6.34962 19.1668C6.12259 19.2424 5.87721 19.1198 5.80153 18.8927C5.75925 18.7659 5.7779 18.6266 5.85207 18.5154L6.88475 16.9663V10.0336ZM12.0727 11.7668C13.0746 12.5113 13.2778 13.9196 12.5265 14.9122C12.4298 15.0399 12.3197 15.1569 12.1982 15.2614L12.073 15.3615C11.0711 14.6169 10.868 13.2087 11.6193 12.2161C11.7482 12.0458 11.9009 11.8945 12.0727 11.7668ZM17.2839 8.30037C17.7625 8.30037 18.1505 8.68836 18.1505 9.16697V10.0336H6.01816V9.16697C6.01816 8.68836 6.40615 8.30037 6.88475 8.30037H17.2839ZM12.0843 4.83398C14.075 5.90349 15.3798 7.05907 15.9986 8.30072H8.17008C8.78891 7.05907 10.0937 5.90349 12.0843 4.83398Z" stroke="black" stroke-linejoin="round"/>
</svg>
