<svg width="25" height="25" viewBox="0 0 25 25" fill="none" xmlns="http://www.w3.org/2000/svg">
<path d="M18.5809 13.9509C19.5177 13.9509 20.2771 13.1915 20.2771 12.2547C20.2771 11.318 19.5177 10.5586 18.5809 10.5586C17.6442 10.5586 16.8848 11.318 16.8848 12.2547C16.8848 13.1915 17.6442 13.9509 18.5809 13.9509Z" stroke="#000001" stroke-linecap="round" stroke-linejoin="round"/>
<path d="M12.9266 13.9509C13.8634 13.9509 14.6228 13.1915 14.6228 12.2547C14.6228 11.318 13.8634 10.5586 12.9266 10.5586C11.9899 10.5586 11.2305 11.318 11.2305 12.2547C11.2305 13.1915 11.9899 13.9509 12.9266 13.9509Z" stroke="#000001" stroke-linecap="round" stroke-linejoin="round"/>
<path d="M7.27233 13.9509C8.20909 13.9509 8.96848 13.1915 8.96848 12.2547C8.96848 11.318 8.20909 10.5586 7.27233 10.5586C6.33557 10.5586 5.57617 11.318 5.57617 12.2547C5.57617 13.1915 6.33557 13.9509 7.27233 13.9509Z" stroke="#000001" stroke-linecap="round" stroke-linejoin="round"/>
</svg>
