<?xml version="1.0" encoding="utf-8"?>
<!-- Generator: Adobe Illustrator 27.9.0, SVG Export Plug-In . SVG Version: 6.00 Build 0)  -->
<svg version="1.1" id="레이어_1" xmlns="http://www.w3.org/2000/svg" xmlns:xlink="http://www.w3.org/1999/xlink" x="0px"
	 y="0px" viewBox="0 0 27 25" style="enable-background:new 0 0 27 25;" xml:space="preserve">
<path d="M20.3,9.3c-0.9-1.3-2.1-2.1-3.5-2.1c-0.7,0-1.3,0.1-1.9,0.5c-0.1-0.2-0.1-0.3-0.2-0.5c-0.7-1.4-1.8-2.4-3.1-2.6
	c-2.6-0.5-5.3,2.1-5.9,5.7s1,6.9,3.7,7.4c0.2,0,0.4,0.1,0.6,0.1c0.8,0,1.6-0.3,2.3-0.8c0.2,0.5,0.4,1,0.7,1.4
	c0.9,1.3,2.1,2.1,3.5,2.1c0,0,0.1,0,0.1,0c1.3,0,2.5-0.7,3.5-1.9c0.9-1.2,1.4-2.8,1.5-4.6S21.1,10.6,20.3,9.3z M14,17.7
	c-0.3-0.5-0.6-1-0.7-1.6c-0.1-0.2-0.1-0.5-0.2-0.7C13,15.1,13,14.8,13,14.5c0-0.2,0-0.5,0-0.7c0-1.4,0.5-2.8,1.2-3.8
	c0,0,0-0.1,0.1-0.1c0.2-0.2,0.3-0.4,0.5-0.5C14.9,9.2,15,9,15.2,8.9c0.5-0.3,1-0.5,1.5-0.5c0,0,0,0,0.1,0c0.1,0,0.2,0,0.3,0
	c0.1,0.5,0.2,1,0.2,1.4c0,0.6,0,1-0.2,1.4c-0.2,0.6-0.5,1-0.9,1.5c-0.9,1.2-1.9,2.5-1.1,6C14.7,18.5,14.3,18.2,14,17.7z M9.5,16.4
	C9.5,16.4,9.5,16.4,9.5,16.4C9,12.9,10,11.9,11,10.9c0.9-0.9,1.9-1.8,1.9-4.2c0.3,0.3,0.5,0.6,0.7,1c0.1,0.2,0.2,0.5,0.3,0.7
	c-0.2,0.2-0.4,0.4-0.6,0.7c-0.9,1.2-1.4,2.8-1.5,4.6c0,0.7,0.1,1.3,0.2,1.9C11.2,16.3,10.3,16.6,9.5,16.4z M6.8,10.5
	c0.5-2.7,2.3-4.7,4.1-4.7c0.1,0,0.3,0,0.4,0c0.1,0,0.2,0.1,0.3,0.1c0.2,2.5-0.5,3.3-1.4,4.2c-1.1,1-2.3,2.2-2,5.8
	C7,14.8,6.4,12.7,6.8,10.5z M16.5,19.3C16.5,19.3,16.5,19.2,16.5,19.3c-0.1-0.4-0.2-0.7-0.3-1c-0.4-2.1,0-3.2,0.5-4.1
	c0.1-0.2,0.3-0.4,0.4-0.6c0.8-1,1.6-2.1,1.2-4.4c0.3,0.2,0.6,0.5,0.9,0.9c0.7,1.1,1.1,2.5,1,3.9c0,1.5-0.5,2.9-1.2,3.9
	C18.3,18.8,17.4,19.3,16.5,19.3z"/>
</svg>
