<?xml version="1.0" encoding="UTF-8"?>
<svg id="_레이어_1" data-name="레이어_1" xmlns="http://www.w3.org/2000/svg" version="1.1" viewBox="0 0 25 25">
  <!-- Generator: Adobe Illustrator 29.0.0, SVG Export Plug-In . SVG Version: 2.1.0 Build 186)  -->
  <path d="M21.5,6.3c-.8-1.2-2-2.1-3.4-2.1s-2.7.7-3.6,1.9c-.4.5-.6,1-.9,1.6h0c-.7,0-1.3.2-1.9.5-.1-.2-.1-.4-.2-.5-.7-1.4-1.7-2.5-3.1-2.7-1.4-.3-2.8.3-3.9,1.4s-1.8,2.5-2.1,4.3c-.3,1.7,0,3.4.5,4.8.6,1.3,1.7,2.3,3.1,2.6,1.1.2,2.1-.1,3-.7.2.5.4,1,.7,1.4.8,1.2,2,2.1,3.5,2.1s2.7-.7,3.6-1.9c.3-.5.6-1,.9-1.6,1.4,0,2.7-.7,3.6-1.9.9-1.2,1.5-2.8,1.5-4.5s-.5-3.5-1.3-4.7ZM18.8,4.9h0ZM14.3,8.3h0ZM5.3,12.9c-.3.8-.4,1.9-.3,3.3-.4-.3-.7-.8-1-1.3-.5-1.1-.7-2.5-.4-4s.9-2.8,1.8-3.6c.9-.8,1.8-1.2,2.8-1,.1,0,.2,0,.3,0,.1,1.3,0,2.2-.3,2.7-.4.5-.7.9-1.2,1.3q0,.1-.2.2c-.6.5-1.2,1.2-1.5,2.3ZM8.7,16c-.8.6-1.6.9-2.4.8h0c-.3-1.7,0-2.8.1-3.6.3-.8.7-1.3,1.2-1.8q0-.1.2-.2c.5-.5,1-1,1.4-1.8.3-.6.5-1.4.5-2.4.3.3.5.6.7,1,.1.2.2.5.3.7-.2.2-.4.4-.6.7-.9,1.2-1.4,2.8-1.5,4.6,0,.8,0,1.4.1,2ZM10.8,18.1c-.7-1-1.1-2.4-1-3.9,0-1.5.5-2.9,1.2-3.9s1.6-1.5,2.6-1.4h.3c.1.5.2,1,.2,1.4s0,1-.1,1.3q0,.1-.1.2c-.2.5-.5.9-.9,1.4,0,.1-.1.1-.1.2-.5.6-1,1.4-1.2,2.5-.2.9-.1,2,.2,3.3-.4-.3-.8-.6-1.1-1.1ZM15.8,18.2c-.7,1-1.6,1.5-2.6,1.4h0c-.1-.4-.2-.7-.3-1.1-.2-1.1-.2-1.9-.1-2.5.1-.6.4-1.1.6-1.5.1-.1.2-.3.3-.4,0-.1.1-.1.1-.2.4-.5.9-1.1,1.1-2,.2-.7.3-1.5.1-2.5.3.2.6.5.9.9.7,1,1.1,2.4,1,3.9,0,1.7-.4,3.1-1.1,4ZM17.5,9.7c0,.1-.1.1-.1.2h-.1c0,.1-.2,0-.3-.2-.6-.9-1.3-1.5-2.2-1.9.2-.4.4-.8.6-1.1.7-1,1.6-1.5,2.6-1.4h.3c.1.6.2,1,.2,1.4s0,1-.1,1.3q0,.1-.1.1c-.2.7-.5,1.1-.8,1.6ZM20.2,14.7c-.6.8-1.4,1.3-2.2,1.4.1-.6.2-1.1.2-1.8,0-1-.1-1.9-.4-2.8,0-.1-.1-.2-.1-.3.1-.1.1-.2.2-.3s.2-.3.3-.4c0-.1.1-.1.1-.2.4-.5.9-1.1,1.1-1.9.4-.6.4-1.4.3-2.4.3.3.6.6.8,1,.7,1,1.1,2.4,1,3.9,0,1.5-.5,2.9-1.3,3.8Z"/>
</svg>