<svg width="27" height="25" viewBox="0 0 27 25" fill="none" xmlns="http://www.w3.org/2000/svg">
<path d="M14.1476 11.4985C14.7215 8.23045 13.3021 5.25018 10.9773 4.84192C8.6524 4.43366 6.30249 6.75201 5.72859 10.0201C5.15469 13.2882 6.57412 16.2685 8.89898 16.6767C11.2238 17.085 13.5737 14.7666 14.1476 11.4985Z" stroke="black" stroke-width="1.2" stroke-miterlimit="10"/>
<path d="M8.45056 16.5609C7.24439 8.5548 12.5542 11.6371 11.7078 5.06527" stroke="black" stroke-width="1.2" stroke-miterlimit="10"/>
<path d="M20.4019 13.6123C20.4947 10.2954 18.6571 7.55316 16.2976 7.48718C13.9381 7.42119 11.9502 10.0565 11.8574 13.3733C11.7646 16.6901 13.6022 19.4324 15.9617 19.4984C18.3212 19.5644 20.3092 16.9291 20.4019 13.6123Z" fill="white" stroke="black" stroke-width="1.2" stroke-miterlimit="10"/>
<path d="M15.5014 19.4494C13.1443 11.7037 18.8457 13.9814 17.0531 7.60242L15.5014 19.4494Z" fill="white"/>
<path d="M15.5014 19.4494C13.1443 11.7037 18.8457 13.9814 17.0531 7.60242" stroke="black" stroke-width="1.2" stroke-miterlimit="10"/>
</svg>
