<svg width="25" height="25" viewBox="0 0 25 25" fill="none" xmlns="http://www.w3.org/2000/svg">
<path d="M19.434 13.877H4.73438V19.4848H19.434V13.877Z" stroke="black" stroke-width="1.2" stroke-linecap="round" stroke-linejoin="round"/>
<path d="M17.4984 11.6816H6.66992V13.884H17.4984V11.6816Z" stroke="black" stroke-width="1.2" stroke-linecap="round" stroke-linejoin="round"/>
<path d="M9.65168 14.9238C9.61124 15.5391 9.33103 16.1139 8.87128 16.5247C8.41152 16.9356 7.80893 17.1496 7.19303 17.1209C6.57712 17.1496 5.97453 16.9356 5.51477 16.5247C5.05502 16.1139 4.77481 15.5391 4.73438 14.9238" stroke="black" stroke-width="1.2" stroke-linecap="round" stroke-linejoin="round"/>
<path d="M14.5696 14.9238C14.5292 15.5391 14.249 16.1139 13.7892 16.5247C13.3295 16.9356 12.7269 17.1496 12.111 17.1209C11.4951 17.1496 10.8925 16.9356 10.4327 16.5247C9.97299 16.1139 9.69278 15.5391 9.65234 14.9238" stroke="black" stroke-width="1.2" stroke-linecap="round" stroke-linejoin="round"/>
<path d="M19.4353 14.9238C19.3949 15.5391 19.1147 16.1139 18.6549 16.5247C18.1952 16.9356 17.5926 17.1496 16.9767 17.1209C16.3696 17.1358 15.7803 16.9154 15.3319 16.506C14.8835 16.0966 14.6106 15.5297 14.5703 14.9238" stroke="black" stroke-width="1.2" stroke-linecap="round" stroke-linejoin="round"/>
<path d="M12.1094 9.84961V11.1574" stroke="black" stroke-width="1.2" stroke-linecap="round" stroke-linejoin="round"/>
<path d="M12.9465 9.16973C14.4112 7.91425 12.1095 5.03711 12.1095 5.03711C12.1095 5.03711 9.80779 7.91425 11.2202 9.16973C11.4635 9.36951 11.7685 9.47871 12.0834 9.47871C12.3982 9.47871 12.7032 9.36951 12.9465 9.16973Z" stroke="black" stroke-width="1.2" stroke-linecap="round" stroke-linejoin="round"/>
</svg>
