<svg width="25" height="25" viewBox="0 0 25 25" fill="none" xmlns="http://www.w3.org/2000/svg">
<path fill-rule="evenodd" clip-rule="evenodd" d="M3.91631 14.6815C4.43118 15.7626 5.22965 16.4427 6.15061 16.6044C7.07158 16.7662 8.05401 16.3988 8.90639 15.5578C9.75764 14.718 10.4366 13.439 10.7045 11.9134C10.9724 10.3878 10.7698 8.95407 10.2556 7.87447C9.74077 6.79344 8.9423 6.11328 8.02134 5.95155C7.10037 5.78982 6.11794 6.15724 5.26556 6.99818C4.41431 7.83799 3.73531 9.11695 3.46741 10.6426C3.1995 12.1682 3.40212 13.6019 3.91631 14.6815ZM2.83291 15.1975C2.19964 13.8679 1.9795 12.1775 2.28549 10.435C2.59149 8.69251 3.37439 7.17824 4.42279 6.14393C5.47005 5.11073 6.825 4.5231 8.22889 4.76964C9.63278 5.01617 10.7065 6.03028 11.339 7.35847C11.9723 8.6881 12.1924 10.3785 11.8865 12.121C11.5805 13.8635 10.7976 15.3778 9.74916 16.4121C8.7019 17.4453 7.34695 18.0329 5.94306 17.7864C4.53917 17.5398 3.4655 16.5257 2.83291 15.1975Z" fill="black"/>
<path fill-rule="evenodd" clip-rule="evenodd" d="M6.28666 13.0206C6.0129 13.8373 5.89832 15.0411 6.19196 16.9901L5.00535 17.1689C4.6959 15.1149 4.79273 13.7017 5.14888 12.6392C5.50964 11.563 6.11648 10.9112 6.67194 10.3657C6.73097 10.3078 6.78876 10.2515 6.84528 10.1965C7.32937 9.7251 7.71998 9.34477 7.99209 8.76996C8.28744 8.14609 8.46315 7.23166 8.26081 5.66051L9.45098 5.50723C9.67182 7.22199 9.5012 8.38671 9.0767 9.28342C8.70622 10.066 8.15669 10.5979 7.68325 11.0561C7.62511 11.1124 7.56813 11.1675 7.51276 11.2219C6.99734 11.7281 6.5558 12.2177 6.28666 13.0206Z" fill="black"/>
<path d="M21.9933 10.6826C22.1061 7.36642 20.2851 4.61308 17.9261 4.53283C15.567 4.45258 13.5631 7.07583 13.4503 10.392C13.3375 13.7082 15.1585 16.4615 17.5176 16.5418C19.8766 16.622 21.8805 13.9988 21.9933 10.6826Z" fill="white"/>
<path fill-rule="evenodd" clip-rule="evenodd" d="M15.0584 14.3483C15.7189 15.347 16.6044 15.9092 17.5389 15.941C18.4734 15.9728 19.395 15.472 20.1219 14.5205C20.8478 13.5702 21.3419 12.2091 21.3945 10.6611C21.4472 9.11302 21.0467 7.72149 20.3871 6.72409C19.7266 5.72537 18.8411 5.16314 17.9066 5.13135C16.9721 5.09956 16.0504 5.60032 15.3236 6.55185C14.5977 7.50212 14.1036 8.86322 14.0509 10.4113C13.9982 11.9593 14.3987 13.3509 15.0584 14.3483ZM14.0575 15.0102C13.2451 13.7818 12.7915 12.1386 12.8516 10.3705C12.9117 8.60235 13.476 6.99374 14.37 5.8234C15.263 4.65433 16.5228 3.88359 17.9474 3.93204C19.3719 3.9805 20.5765 4.83507 21.388 6.06213C22.2004 7.29052 22.654 8.93375 22.5938 10.7019C22.5337 12.47 21.9695 14.0786 21.0755 15.2489C20.1824 16.418 18.9226 17.1888 17.4981 17.1403C16.0735 17.0918 14.869 16.2373 14.0575 15.0102Z" fill="black"/>
<path d="M17.0576 16.4923C14.7473 8.73242 20.4349 11.0446 18.6808 4.65485L17.0576 16.4923Z" fill="white"/>
<path fill-rule="evenodd" clip-rule="evenodd" d="M17.1735 12.3774C17.0163 13.2243 17.0706 14.4323 17.633 16.3214L16.4829 16.6638C15.8902 14.673 15.7891 13.26 15.9937 12.1583C16.2009 11.0423 16.711 10.3123 17.185 9.69474C17.2354 9.62911 17.2848 9.56533 17.3331 9.50296C17.7467 8.96872 18.0805 8.53766 18.2699 7.93054C18.4754 7.27159 18.5219 6.34159 18.1026 4.81399L19.2598 4.49632C19.7175 6.16357 19.7108 7.34069 19.4155 8.28781C19.1577 9.11439 18.6876 9.71768 18.2827 10.2374C18.233 10.3012 18.1842 10.3638 18.137 10.4254C17.6971 10.9984 17.3281 11.5448 17.1735 12.3774Z" fill="black"/>
<path d="M17.5504 14.1279C17.6431 10.8111 15.8056 8.06878 13.4461 8.0028C11.0865 7.93682 9.09859 10.5721 9.00584 13.8889C8.91308 17.2057 10.7506 19.948 13.1102 20.014C15.4697 20.08 17.4576 17.4447 17.5504 14.1279Z" fill="white"/>
<path fill-rule="evenodd" clip-rule="evenodd" d="M10.6381 17.8375C11.3047 18.8322 12.1935 19.3891 13.1282 19.4152C14.0629 19.4414 14.9815 18.935 15.7026 17.9791C16.4227 17.0245 16.9086 15.6604 16.9519 14.1121C16.9952 12.5638 16.5863 11.1747 15.9207 10.1813C15.2541 9.18656 14.3653 8.6297 13.4306 8.60356C12.4959 8.57742 11.5773 9.08374 10.8562 10.0396C10.1361 10.9943 9.65021 12.3583 9.60691 13.9067C9.56361 15.455 9.97249 16.8441 10.6381 17.8375ZM9.64126 18.5055C8.82144 17.2821 8.35792 15.6416 8.40738 13.8731C8.45683 12.1047 9.01131 10.4927 9.89822 9.31698C10.7842 8.14252 12.0393 7.36418 13.4641 7.40403C14.8889 7.44387 16.0986 8.29114 16.9176 9.51327C17.7374 10.7367 18.2009 12.3772 18.1514 14.1456C18.102 15.9141 17.5475 17.5261 16.6606 18.7018C15.7746 19.8763 14.5195 20.6546 13.0947 20.6148C11.6699 20.5749 10.4602 19.7276 9.64126 18.5055Z" fill="black"/>
<path d="M12.6499 19.9651C10.2928 12.2193 15.9942 14.497 14.2015 8.11804L12.6499 19.9651Z" fill="white"/>
<path fill-rule="evenodd" clip-rule="evenodd" d="M12.7419 15.8499C12.5898 16.6977 12.6514 17.9054 13.2252 19.7911L12.0772 20.1404C11.4725 18.1532 11.3629 16.7409 11.5608 15.638C11.7613 14.5207 12.2669 13.7877 12.7372 13.1673C12.7872 13.1013 12.8362 13.0373 12.8841 12.9746C13.2945 12.4379 13.6257 12.0048 13.8114 11.3965C14.0129 10.7364 14.0538 9.8061 13.6252 8.28106L14.7805 7.95641C15.2482 9.62085 15.2487 10.798 14.9591 11.7469C14.7063 12.575 14.2399 13.1811 13.8381 13.7033C13.7888 13.7674 13.7404 13.8303 13.6935 13.8921C13.2572 14.4678 12.8915 15.0164 12.7419 15.8499Z" fill="black"/>
</svg>
